<svg xmlns="http://www.w3.org/2000/svg" viewBox="0 0 63.5 47.625"><g transform="matrix(.97967 0 0 .97967 -.358 -4.054)"><path fill="#ffd45a" stroke="#000" stroke-width=".265" d="m27.861 34.353-1.235-1.317c-.717-.714-1.657-1.19-2.2-2.562-.2-.81.181-1.618.393-2.428.773-.444 1.287-1.372 2.72-1.377.346-.308.296-.869 1.696-.894 1.27-.505 2.44 1.17 3.507 2.053.155.618.388 1.313.03 1.418-.958.489-1.626.91-2.628 1.134l-1.648.492c-.398.535-.046.89.088 1.303 1.71 1.283 2.826.948 4.372 1.25l3.566-.116.46 2.588c-2.793.064-5.202-.1-8.116-.244z"/><ellipse cx="7.742" cy="40.196" fill="#cf9513" opacity=".997" rx=".677" ry="1.27" transform="rotate(-34.486)"/><ellipse cx="54.236" cy="33.072" fill="#fecb25" opacity=".997" rx="2.5" ry="2.408"/><path fill="#fecb17" d="M6.08 50.915c-4.647.434-4.343-.958-4.343-.958l3.911-18.651.515-1.817 11.57.244c1.034.507 2.968 1.333 3.314 2.874l-.389 5.043 3.376-1.948c2.212.186 4.353-.355 6.588.367l33.422-.023c-.657 4.237-1.545 8.994-3.036 13.053-1.52.717-1.157 1.244-5.353 1.96-1.525-.487-3.053-.692-4.52-2.283-.235-2.712.513-4.816.782-7.416-.872.341-1.88 1.98-2.873 3.474l-1.511 5.42c-.54.499-1.46.429-2.225.59-.893-.245-1.786-.105-2.679-.798l1.003-5.412-1.07-3.14-.788 1.432-1.149 4.715c-.502.966-1.081 1.87-2.205 2.338-1.46.679-2.979 1.194-4.751.999-.95-.346-2.113-.803-3-1.4-.77-.518-.629-1.378-.935-2.07-.386.575-.982.93-1.526 1.343-1.947 2.01-5.185 2.06-7.177 1.734-1.224-.45-1.864-1.366-2.793-2.052l-2.786 1.881-3.826.568z"/><path fill="#560100" d="M1.433 51.349c-.254-.157-.463-.58-.463-.94 0-.557 3.532-17.33 4.274-20.299.371-1.485.878-1.594 6.532-1.41l4.854.157 2.355-1.151 2.354-1.152-1.255-.474c-2.237-.847-4.689-2.708-5.464-4.148-.431-.8-.44-.975-.093-1.805.564-1.349 3.352-4.704 5.836-7.024 3.769-3.52 7.308-5.761 10.349-6.556 2.222-.58 2.162-.793-.175-.625-2.24.162-2.675-.132-.958-.646.94-.282 1.263-.261 2.315.147.77.298 2.203.515 3.869.586 2.718.116 5.5.665 6.851 1.353.634.323 1.101.34 2.723.098 3.884-.577 6.448-.284 9.396 1.075 1.693.78 4.18 2.948 4.18 3.642 0 .147-.637.676-1.417 1.175-2.523 1.614-3.316 3.319-3.3 7.098.01 2.594-.34 5.04-.982 6.86-.598 1.696-.52 2.084.417 2.084 1.157 0 2.458.615 3.143 1.486.486.619.573.996.477 2.082-.065.73-.207 1.595-.317 1.922l-.198.596h3.743c2.986 0 3.772.076 3.887.375.263.685-2.218 12.3-2.844 13.311-1.62 2.622-7.946 3.16-10.236.87-1.053-1.053-1.181-2.094-.602-4.899.27-1.31.465-2.413.432-2.452-.034-.039-.43.62-.88 1.465-.45.844-1.062 2.656-1.361 4.026-.3 1.37-.665 2.612-.814 2.76-.334.334-3.633.54-4.886.305-1.212-.228-1.375-.902-.82-3.398.316-1.416.371-2.321.208-3.378l-.223-1.445-.33 1.588c-.812 3.916-1.496 5.067-3.628 6.11-2.885 1.412-7.476.83-8.746-1.11l-.412-.628-1.041.892c-1.293 1.107-3.017 1.625-5.252 1.58-1.97-.04-3.417-.556-4.254-1.519l-.58-.667-.843.642c-1.775 1.354-2.739 1.524-9.272 1.628-4.05.065-6.24.002-6.549-.187zm14.02-1.785c.616-.329 1.303-.876 1.526-1.218.868-1.324 3.685-14.344 3.406-15.74-.208-1.04-1.384-2.065-2.688-2.341-.541-.115-3.294-.21-6.117-.21H6.447l-2.066 9.79c-1.136 5.385-2.07 9.949-2.077 10.142-.009.286 1.123.336 6.008.263 5.649-.083 6.089-.126 7.14-.686zm-6.007-3.7c.936-4.266 2.637-12.233 2.637-12.353 0-.197.908-.189 1.433.013.23.088.419.438.419.778 0 .662-1.956 10.217-2.272 11.1-.33.918-.96 1.455-1.71 1.455-.7 0-.717-.034-.507-.992zm17.156 3.625c.614-.345 1.339-.99 1.609-1.431.518-.847 1.813-6.213 2.053-8.502.128-1.226.296-1.586-.436-2.405-.186-.271-.574-.522-1.146-.663l-2.508-.082c-2.414-.079-2.974.04-3.986.71-.603.4-1 1.071-1.208 1.473-.208.402-.766 2.595-1.24 4.873-1.014 4.873-.926 5.482.921 6.35 1.508.708 4.386.551 5.941-.323zm-3.394-2.17c.027-1.733 1.688-8.464 2.163-8.763.988-.621.995.164.04 4.6-.516 2.4-1.062 4.511-1.213 4.693-.52.628-1.003.37-.99-.53zM36.821 50c1.464-.405 2.505-1.206 2.95-2.27.334-.8 2.474-10.248 2.474-10.924 0-.158-.843-.268-2.051-.268h-2.051L37.11 41.5c-1.08 5.19-1.527 6.68-2.004 6.68-.643 0-.555-1.062.488-5.913.602-2.797 1.094-5.23 1.094-5.406 0-.225-.62-.322-2.055-.322h-2.056l-1.144 5.622c-.933 4.586-1.09 5.76-.857 6.363.569 1.466 3.652 2.195 6.244 1.477zm21.59-.11c1.337-.472 2.188-1.198 2.618-2.236.168-.405.814-3.077 1.436-5.937l1.13-5.199-2.126.076-2.126.076-1.158 5.424c-1.143 5.353-1.585 6.524-2.223 5.885-.306-.306.008-2.112 1.613-9.268l.492-2.193-2.14.076-2.141.076-1.137 5.424c-1.143 5.449-1.193 6.084-.556 6.955.837 1.145 4.19 1.592 6.317.842zm-10.72-2.504c.465-2.09.859-3.025 2.34-5.556.981-1.674 2.076-3.549 2.434-4.167l.65-1.125H49.178l-1.02 2.41-1.018 2.41-.076-2.41-.076-2.41h-3.844l.578 4.3c.573 4.26.574 4.32.085 6.548-.27 1.237-.495 2.343-.498 2.459-.003.115.856.175 1.908.132l1.914-.077zM24.932 34.993l1.57-.215-1.146-.48c-1.096-.46-1.14-.52-.981-1.367.1-.534.002-1.367-.247-2.1-.327-.966-.353-1.435-.126-2.279.157-.585.216-1.134.13-1.22-.452-.451-2.781-.082-4.509.714l-1.852.854 1.376.658c2.23 1.067 2.923 2.735 2.365 5.693l-.182.962 1.016-.502c.559-.276 1.722-.6 2.586-.718zm11.474-.371a56.019 56.019 0 0 1-.246-.872c0-.008-1.042-.01-2.315-.003-2.648.011-4.665-.555-5.628-1.58-.593-.631-.597-.666-.13-1.182.265-.293.642-.532.838-.532.507 0 .446-.213-.324-1.128-.462-.549-.632-.997-.532-1.397.227-.905-.425-1.304-1.35-.826-1.608.832-2.39 2.425-1.784 3.634.187.373 1.116 1.36 2.064 2.192.947.832 1.797 1.746 1.888 2.032.154.485.42.52 3.965.52h3.8l-.246-.858zm10.561-.267c3.486-3.677 5.068-7.195 5.068-11.267 0-2.216-.856-4.84-2.416-7.408-.563-.927-1.024-1.748-1.024-1.823 0-.274.898.61 1.595 1.57l.714.982.631-.687c.91-.99 3.058-2.32 4.667-2.892.764-.271 1.389-.62 1.389-.776 0-.49-1.665-1.891-3.098-2.607-.758-.378-2.2-.829-3.203-1.001-1.553-.266-2.094-.247-3.62.13-2.055.507-2.605.863-2.421 1.567.071.273.05.454-.048.401-5.305-2.827-9.427-3.826-12.85-3.116l-1.555.323 1.049.47c2.143.96 2.815 2.974 1.597 4.796-2.18 3.264-7.43 1.75-7.006-2.02.162-1.437.142-1.428-3.085 1.297-2.362 1.996-5.988 6.066-7.02 7.881l-.55.968.869 1.14c1.117 1.465 3.373 2.798 5.37 3.172.88.165 2.825.238 4.417.165 2.65-.122 2.947-.192 4.321-1.023 1.438-.868 3.634-2.883 4.152-3.81.142-.253.244-1.248.228-2.21l-.03-1.75.509 1.115c.51 1.117 1.345 1.605 2.46 1.435.663-.1.572.36-.165.844-.456.298-.68.763-.816 1.684-.246 1.679-1.02 3.405-1.688 3.763-.295.157-1.34.287-2.323.287h-1.787l.742.774c.408.426 1.103.924 1.543 1.106.752.312.846.281 1.553-.51.874-.978 1.024-1.026 1.024-.331 0 1.087-3.735 3.194-6.828 3.85-1.172.25-1.03.906.345 1.593.858.429 1.585.529 3.837.527 2.442-.002 2.958-.086 4.265-.697 1.992-.931 3.627-2.454 4.361-4.063l.604-1.323.015 1.13c.013.972-.142 1.301-1.104 2.345-.615.667-1.71 1.55-2.43 1.963-1.139.65-1.354.91-1.619 1.955L37.3 35.48h8.602zM19.502 21.337c-.297-.357-.215-.41.64-.41.666 0 .946.107.872.331-.164.496-1.125.546-1.512.08zm26.497-10.66c.186-.964 3.32-1.741 5.558-1.378.997.162.892.19-.845.224-2.002.04-4.234.745-4.234 1.338a.282.282 0 0 1-.284.277c-.156 0-.244-.207-.195-.46zm9.037 23.98c1.292-.589 1.592-2.281.583-3.29-1.728-1.728-4.462.39-3.302 2.558.481.9 1.656 1.216 2.719.732zm-1.753-.972c-.213-.424-.165-1.629.07-1.775.29-.178 1.857.566 1.857.882 0 .288-1.81 1.127-1.927.893zm-26.89-.365c-.862-.783-.921-.798-1.264-.33-.327.448-.27.519.64.801 1.525.474 1.6.417.623-.471zm3.5-4.089c-.128-.334-.203-.345-.408-.057-.18.253-.214.187-.122-.233.07-.326-.04-.724-.248-.898-.777-.644-.647.156.251 1.554.29.452.726.15.528-.366zm1.91.31c1.193-.5 1.18-1.119-.048-2.347-1.134-1.133-2.43-1.486-3.278-.892l-.571.4.679.445c.373.245 1.01.97 1.415 1.61.405.641.77 1.166.81 1.166.041 0 .488-.172.993-.383zm.101-4.545c.06-.055.039-.171-.049-.259-.087-.087-.435.043-.771.29l-.613.448.662-.19c.363-.104.71-.234.771-.29zm1.296-.565c.088-.914.282-1.048.786-.544.448.447.715.058.417-.609-.246-.551-.275-.543-1.232.36-1.043.984-1.312 1.89-.517 1.739.305-.058.491-.38.546-.946zm1.048.508c.257-.163.21-.328-.199-.698-.524-.475-.535-.47-.535.218 0 .731.166.84.734.48zm.941-1.68c-.549-.606-.586-.556-.416.558.127.835.165.867.495.415.306-.418.294-.56-.079-.972zm.218-.98c-.163-.8-.22-.847-.545-.456-.311.375-.295.513.113.963.601.664.658.598.432-.506zm.73-1.351c.012-.522-.04-.578-.242-.265-.14.218-.25.754-.242 1.19.013.682.047.72.242.265.125-.29.234-.827.242-1.19zm-4.391-7.042c.996-.475 1.768-1.578 1.767-2.524-.002-.917-.915-2.254-1.882-2.754-1.027-.53-2.398-.222-3.633.817-2.747 2.312.4 6.058 3.748 4.46zm-2.465-.631c-.265-.171-.287-.258-.067-.26.182-.003.331-.243.331-.534 0-.577-.677-.732-.868-.198-.171.48-.425.149-.615-.803-.138-.691-.032-.964.638-1.634.504-.504 1.075-.805 1.527-.805.697 0 .707.019.261.51-.931 1.03.172 2.242 1.343 1.475.605-.396.624-.386.616.324-.018 1.558-1.933 2.722-3.166 1.925z"/></g></svg>