<svg xmlns="http://www.w3.org/2000/svg" xml:space="preserve" x="0" y="0" version="1.1" viewBox="0 0 1103 340"><style type="text/css">.st{fill:#FFFFFF}.st0{fill:#005981}.st1{fill:#e57536}.st2{fill:#a9262c}.st3{fill:#f9c926}</style><g transform="translate(0 158)"><text xml:space="preserve" fill="#175a81" fill-opacity="1" stroke="none" font-family="sans-serif" font-size="65.3" font-stretch="normal" font-style="normal" font-variant="normal" font-weight="700" style="line-height:1.25;-inkscape-font-specification:'sans-serif, Bold';font-variant-ligatures:normal;font-variant-caps:normal;font-variant-numeric:normal;font-variant-east-asian:normal;white-space:pre;shape-inside:url(#rect97)" transform="matrix(1.0366 0 0 1 -19 4)"><tspan x="447" y="156"><tspan style="-inkscape-font-specification:'sans-serif, Bold';font-variant-ligatures:normal;font-variant-caps:normal;font-variant-numeric:normal;font-variant-east-asian:normal">Connectivity Project</tspan></tspan></text></g><g><path class="st" d="m1103 179-2 12c-3 8-7 15-13 22a75 75 0 0 1-36 21c-6 2-12 2-19 3-13 0-26-1-39-4-16-4-29-11-41-22-7-5-12-12-17-20v-1l28-23 1 1c8 11 17 19 29 25a70 70 0 0 0 50 5c7-2 12-5 16-11 4-7 3-16-3-22-5-5-10-8-16-10l-29-8-30-11c-8-3-16-8-22-14-8-9-13-19-13-31-1-8 0-15 2-22a73 73 0 0 1 43-38 124 124 0 0 1 56-2c17 3 30 10 42 21l11 11-27 25-8-7c-10-9-22-14-36-16-9-1-18-1-27 2-5 2-10 5-13 9-4 8-5 19 6 26 6 4 13 6 20 8l31 9 26 10c8 5 16 10 21 18 5 7 8 14 9 22v12z"/><path class="st" d="M451 232V31h90c12 0 24 1 35 5 10 3 19 8 25 17 5 6 7 13 8 20a55 55 0 0 1-20 51l-2 2h-1l7 4c12 6 19 16 22 29 2 12 2 23-2 34-4 13-13 22-24 29-11 5-22 8-34 9l-20 1h-84zm39-36h51c6 0 12-1 17-3s10-4 13-9c3-4 4-9 4-15-1-8-5-15-13-18-7-3-15-4-23-4h-49v49zM466 67v1h1l22 9 1 3v30c0 2 1 2 2 2h46l10-1c5-1 10-3 14-6 8-8 7-20 3-26-3-6-8-8-13-10-7-2-14-2-21-2h-65z"/><path class="st" d="M740 232V31h64c16 0 32 2 47 6 14 4 28 10 39 20 10 9 17 19 22 31 4 11 6 23 7 35 1 15-1 29-6 43a93 93 0 0 1-63 60 149 149 0 0 1-52 6h-58zm39-36h1l37-1c11-1 22-3 32-9 11-6 20-15 24-27 6-16 7-31 4-47-3-12-8-22-18-29-7-6-16-10-25-12-11-3-22-4-33-4h-49l1 1 25 10 1 3v115z"/><path class="st" d="M654 31h39v201h-39V31z"/></g><path class="st" d="m164 287-2 11c-2 8-5 16-11 23-9 10-21 16-34 18-9 1-17 1-25-1-12-3-21-10-28-20l-6-13-15-2c-17-4-29-17-31-34v-21l-1-2c-5-6-9-12-10-20-2-9-1-17 2-25l5-9v-3c-3-9-6-19-6-29-1-19 4-34 17-48l3-3c1-2 0-3-1-5-2-14-1-27 9-39 4-5 9-8 14-11 1-1 2-1 2-3-1-6 0-13 3-19 5-9 13-15 24-16h9l2-1c3-5 7-10 14-13l9-2h9l13 3c15 5 24 15 28 31 2 9 1 18-2 26l-4 7v3c4 6 5 12 6 18 0 7-2 13-6 18-2 2-2 4-1 6l6 12 2 10v3l-7 19-2 11v8c4 7 7 16 8 24l2 1-2 20-4 15v1c5 7 7 15 9 22l1 8c0 2 1 2 2 2m-28-37 1-5c2-7 4-14 3-21-1-10-4-20-10-29-2-3-2-7 0-10l3-6h-9c-4-1-9-2-13-5-6-4-9-10-12-17l-3-15c0-4-1-8-4-11-4-5-9-7-14-8h-3c3-3 6-4 9-5 4-1 7 0 10 2-1-6-1-11 1-15 2-8 8-12 14-12 5 0 9 3 10 6h-1c-7 0-12 4-14 11v14l4 15 3 18c2 8 8 11 14 11s13-3 15-11v-7l-10-20-6-15v-4l1 1 4 5c2 3 3 3 6 0s4-6 4-10c-1-5-2-10-5-13-3-4-3-7-1-11l7-15c2-11-2-21-11-27-7-4-13-6-21-5-3 0-6 0-8 3l-3 4c-3 5-4 10-4 15 0 4 1 8 3 11 3 5 6 5 11 3l2-2 8-7c1-1 2-3 4-3l1 5-4 7c-6 6-13 9-21 13-2 1-4 0-5-2l-2-4-2-12-3-10c-1-3-2-5-5-6-7-1-13 1-17 7-3 5-3 11-1 17l5 11c3 7 8 15 14 20l3 3c-4 1-7 0-10-2-5-3-8-7-12-11l-8-7c-2-1-3-2-5 0l-5 3c-9 7-10 21-7 29l2 3c7 4 13 5 21 6h8v1c-4 3-8 4-12 4l-12-1c-4-1-5 0-6 4-2 6-1 12 1 17 3 8 8 13 16 13h1c5 1 10-1 13-6s8-8 13-11v1l-1 1c-3 7-5 13-5 20 1 7 2 14 5 20 3 8 10 12 18 10 5-1 9-4 12-7l4-5c0 6-1 11-3 16-1 3-3 5-5 6 1 8 4 16 9 23 5 6 11 12 20 14zm-99-53 2 2c7 2 14 4 21 3 6-2 9-5 9-12l-2-9-2-2h-3l-8 1c-6 0-10-2-14-5-6-4-11-9-14-16l-2-8c-4 5-6 12-7 19l2 19 7 21c5 9 12 17 21 22 6 3 12 5 19 4 4 0 8-1 11-4l5-8c3 1 4 4 4 7 0 4-2 7-4 10s-5 5-8 6l7 5c3 3 6 7 5 12l-1 11 6 1 6 2c0-6 3-12 6-17v4c1 8 2 15 6 21s7 13 8 20v9l-5-10c-5-12-15-19-28-21-2 0-5-1-7 2h-1l-11 4-17 2 2-1c6-2 12-5 17-9 4-4 7-9 8-14 1-6-1-10-5-13l-4-2c-8-3-17-7-24-12-7-4-13-7-18-13l-5-6-1 4c-2 5-3 10-2 15 1 6 4 10 8 15 6 5 12 8 20 9l11 1c-8 9-17 10-28 6v13c1 6 3 11 8 15 7 6 15 7 23 7l14-3 9-3-9 12v3l5 11c5 8 12 14 21 15 7 1 14 0 21-2 8-2 15-6 20-13 4-6 6-13 7-20a80 80 0 0 0-5-36l-5-5-18-13c-6-3-10-8-12-14l-6-16c-1-4-4-7-8-8l-9-3c-3-1-6-2-7-5l-5 2-12 1c-5 0-11-1-16-3-3-2-6-5-6-10z"/><path class="st" d="m323 300 5-22c0-2 1-3 3-3l11-2 5 1 8 6c3 1 3 3 2 6l-5 20 3-1c17-7 24-27 15-43l-8-13c-5-5-6-12-6-19l-2-79-1-50c0-4 2-8 5-11l8-14c5-10 1-23-7-30l-4 16c-1 6-1 6-7 7-6 2-13 1-18-4 0 0-3-4-2-6l5-19c-10 3-16 9-19 18-3 10-2 19 5 27 5 6 11 13 12 21v17l2 86v15c1 9-3 17-8 24s-10 15-11 24c-2 10 1 19 9 28zm15-174v-12c0-2 1-4 4-4s4 1 4 5l1 21 2 79-1 7c0 2-1 3-3 3-3 0-4-1-5-3v-4l-2-92zm-11 128c4-9 23-12 31-3-17-4-20-4-31 3zm-2-167c11 6 21 6 32-1-8 10-24 10-32 1z"/><path d="M201 94h-27c-4 0-6-2-6-7V54c0-4 2-7 7-7 1 0 2 0 2-2 1-3 2-3 5-3h16c3 0 4 0 5 3 0 2 1 2 3 2h21c3 0 6 2 6 6v35c0 3-3 6-6 6h-26zm-29-38h56l-2-3-2-1a10631 10631 0 0 0-48 0l-4 4z" class="st0"/><path d="M287 234h-42v-48h22v20h20v28z" class="st1"/><path d="M247 254h22v20h20v28h-42v-48z" class="st2"/><path d="M269 140h20v29h-41v-49h21v20z" class="st3"/><path d="M274 62v46h-20V81h-16V62h36z" class="st0"/><path d="M289 202h-15v-15l15 15z" class="st1"/><path d="m274 120 15 15h-15v-15z" class="st3"/><path d="m274 254 15 15h-15v-15z" class="st2"/><path d="M158 137h76v19h-83" class="st3"/><path d="M158 200h76v20h-77" class="st1"/><path d="M165 268h69v19h-70" class="st2"/></svg>