<svg xmlns="http://www.w3.org/2000/svg" xml:space="preserve" x="0" y="0" version="1.1" viewBox="0 0 1030.3 300.3"><style>.st0{fill:#1fbed1}</style><path d="M129.5 297.4c-44.3-8.2-78.2-30.8-103-67.1 1.5-2.9 3.1-5.3 4-7.9 3.7-10 1.6-19.3-4-28-4.6-7.1-9.6-14-14.1-21.2C4 159.7.5 145 2.9 129.2c2.7-17 11.3-30.8 24.6-41.5 26.6-21.3 65.9-21 91.7 1.2 13.3 11.5 17.7 26.7 14.7 43.8-1.5 8.6.5 15.4 7.4 20.7 2 1.5 3.7 3.5 6.1 5.8-2.9 3.5-5.2 6.4-7.9 9.6.9 1.4 1.8 3.1 3 4.7 3.6 4.7 2.5 7.8-3.2 9.3-.8.2-1.5.3-3 .6 2 1.4 3.5 2.5 4.8 3.5 1.1 2.6.2 4.3-1.6 5.5-2.9 1.9-3.4 4.6-3.3 7.8.3 7.9-2.9 12.1-10.6 14-3.5.9-7.2 1.4-10.8 1.5-7.8.2-13.6 3.4-16.5 10.7-2.7 7.1-1.1 13.6 3.9 19.4 5 5.8 10.1 11.5 14.4 17.8 7.3 10.8 10.1 19.1 12.9 33.8z" class="st0"/><path fill="#0269a3" d="M31.5 55c21.2-29.2 48.6-48.1 85-53.3 23.7-3.4 46.8-1.8 69.1 7.2 15.5 6.3 28.2 16.2 37.3 30.4 7 11 13.5 22.2 15.2 35.4.6 4.4.9 9 .4 13.4-.7 7.2 1.5 13.3 6.3 18.3 5.4 5.6 11.4 10.7 17.1 16 1.9 1.8 4.1 3.4 5.7 5.5 3.2 4.2 2.9 8-1 11.6-2 1.9-4.6 3.2-7 4.7-1.5 1-3.1 1.8-4.3 2.5-1.3 3.6-.2 6.3 1.3 9 .9 1.6 1.8 3.2 2.5 4.9 1.6 4 .8 7-2.3 9.9-.9.9-1.9 1.8-2.9 2.7 1.2 1.4 2.2 2.5 3.1 3.7 2.1 2.8 2.8 6.3.5 8.8-5.4 5.7-4.3 12.4-3.4 18.9 1.4 10.7-1.7 16.5-11.8 20-7.1 2.5-14.4 2.7-21.7 1.9-.4 0-.8-.1-1.1-.1-2.3-.1-4.6-.2-6.9-.5-7.4-1-11.8 2.9-14.7 9.1-1 2.2-1.6 4.6-2.4 7-.1.3-.2.6-.3 1-1.7 13.5-.3 27.2 1.8 40.6.5 3.2.9 6.4 1.2 9.6-6.2 1.2-12.3 2.3-18.4 3.4-.3 0-.5.1-.8.1-6.2.8-12.5 1.7-18.9 2.5-5-6.9-8.7-14.3-11.7-22-5.2-13.4-7.4-27.2-4.5-41.5.4-1.8.9-3.5 1.6-5.2 3.6-9.9 7-12.1 17.6-11.2.3 0 .5 0 .8.1l5.1.3h2c4.4-.9 8.9-1.3 13.1-2.7 6.5-2.1 8.1-4.8 7.9-11.5-.1-2.8-.5-5.7-.2-8.5.3-2.6.9-5.3 2.2-7.5 2.9-5.3 3-6.4-1-10.9-.4-.5-.7-1.1-1-1.5 1.7-2.6 4.3-4.9 4.6-7.5.3-2.6-1.7-5.5-2.7-8.3-.3-.9-.5-1.9-1-3.3 1.1-1 2.2-2.1 3.5-3 1.4-.9 3-1.5 4.4-2.4 5.6-3.8 5.9-8.5.9-13.2-1.9-1.8-4.3-3.2-6.2-5-4-4-7.9-8.1-11.5-12.4-2.6-3-3.4-6.7-3-10.7.3-3.1.2-6.3.2-9.4.1-.1.2-.1.3-.2-.1-.2-.3-.4-.4-.6-1.1-7.8-3.3-15.3-7.5-22l-.6-.9c-5.7-14-15.3-24.7-28.3-32.3A87.6 87.6 0 0 0 104 34.1c-9.4-.4-18.9.7-28.3 1.1-.3-.2-.6-.1-.8.2-15.7 3-30 9.2-42.2 19.7-.5-.1-.9-.1-1.2-.1zm799 88.5h-16.1c0-7.5-.1-14.8-.1-22V78c-7.9 15.8-14.3 32.3-21.4 48.7H777l-20.5-49c-.3 0-.6.1-.9.1v65.6h-15.9c-.3-1.6-.8-3.3-.8-5-.1-29 0-58 0-87 0-1.6.4-3.2.6-5h21.2c7.9 20 15.9 40.2 24.3 61.4 8.3-21 16.2-41.2 24.3-61.7 7.2.1 14.1-.3 21.2.3v97.1zm-208.4-37.8c.2-7 1.8-13.5 5.5-19.4 9.7-15.9 30.7-19.2 44.9-7.1.2.2.6.1 1.3.3V46.6h16.7c.3 1.4.9 3.1.9 4.8 0 29 0 58-.1 87 0 1.6-.3 3.2-.5 4.9H675v-7.9c-.2-.3-.4-.5-.6-.8-7.2 9.6-16.8 11.9-27.8 10.1l-1.1-.3c-12.4-3.1-21.2-13.7-22.8-27.4-.2-1.6-.3-3.3-.4-4.9.1-.1.2-.3.2-.3-.1-.2-.2-.5-.3-.7v-4.2c.1-.1.3-.2.3-.3-.2-.3-.3-.6-.4-.9zm52.4 5.8c-.2-7.4-1.1-12.4-4-16.9a15.94 15.94 0 0 0-26.8-.6c-5.6 7.9-5.6 21.8 0 29.7 6.9 9.7 21.2 9.3 27-1.1 2.2-4 3-8.7 3.8-11.1zm284.4-5.5c.1-1.1.3-2.2.4-3.3.2-.2.3-.4.1-.7 1.7-20.8 19.4-34.2 39-29 4.2 1.1 7.9 3.8 12.1 5.9V46.6h16.8c.3 1.5.8 3.2.8 4.9 0 29.1-.1 58.3-.1 87.4 0 1.4-.3 2.9-.6 4.5h-15.5v-8.1c-.8 0-1.2-.1-1.4.1-16.3 16.9-41.5 11.7-49-10.5-1.9-5.7-1.9-12-2.8-18.1.1-.1.3-.2.3-.2.1-.2 0-.4-.1-.6zm17.6 2.9c-.2 5.3.9 10.2 3.9 14.6 6.5 9.6 20.6 9.5 26.9-.2 5.1-7.8 5.1-21.1-.1-28.9-6.5-9.8-20.1-9.9-26.9-.2-2.9 4.4-4 9.4-3.8 14.7zm-549.8 35.7c-8.2 1.2-16.2 1.1-24.2-1.1-21.3-5.9-35.8-25.6-35.3-50.2.4-21.5 14.7-43.3 40.2-47.7 14.8-2.6 28.8-.1 41.3 8.8 1.3.9 2.3 2.3 3.4 3.5 0 .4-.1.8-.1 1.2-2.2 3.7-4.5 7.3-7 11.5-2-1.1-3.8-1.9-5.4-2.9-9.1-5.7-18.8-8.3-29.5-5.9-12.8 3-20.6 11.1-23.5 23.7-3.1 13.4-.4 25.7 9.7 35.3 10.3 9.7 22.6 10.5 35.3 5.6 3.7-1.4 6.9-3.9 10.3-5.9 1.4-.8 2.6-1.9 4.5-3.2 3.1 4.2 5.9 8 9 12.4-7.9 8.2-17 12.9-27.8 14.8-.3-.1-.6 0-.9.1zm107.5-1.2h-16.3c-.2-1.8-.4-3.6-.4-5.3v-34.5c0-1.8 0-3.7-.3-5.5-1.3-8.2-6.4-11.6-14.6-9.8-9.1 2-15.6 9.8-15.9 19.9-.3 9.8-.1 19.6-.2 29.5 0 1.8-.2 3.5-.3 5.7h-16.7c-1.4-8-.4-16.1-.6-24.2-.2-8.2 0-16.3 0-24.5V46.4h17.3v38.7c1.2-1.4 1.7-1.9 2.2-2.5 7.8-9.6 20.2-13.2 31.9-9.4 7.2 2.3 11.3 7.4 13.2 14.4.8 2.9 1.2 5.9 1.2 8.9.1 14.3.1 28.6 0 43-.1 1.2-.3 2.3-.5 3.9zM830 229.6c4.6-18.7 22.3-29.2 42-25 12.5 2.7 21.2 12.9 22.5 26.1.4 4.1.1 8.2.1 13h-47.7c0 11 9.8 17.8 17.2 18.2 3.1.2 6.3-.2 9.5-.3.3-.1.6-.3 1-.4 4.2-1.8 8.4-3.7 13.4-5.8 2.1 3.8 4.1 7.5 6 11-8 9.8-30.2 14.4-45.3 7-15.4-7.6-22.8-24.3-18.7-42.6.1-.1.4-.2.4-.3-.3-.3-.4-.6-.4-.9zm17.8 1.7h29.4c-1-9.3-6-14.3-13.9-14.1-8.6.1-15.2 6.1-15.5 14.1zm51.5-145.7c4.8-6.7 10.7-11.8 19.2-13.2 5.4-.9 10.6-.6 15.8 1.2 7.6 2.5 11.4 8.3 13.1 15.7.6 2.9 1 5.9 1 8.9.1 13.5.1 27 0 40.5 0 1.6-.4 3.1-.6 4.9h-16.4c-.2-2-.5-3.7-.5-5.5v-33c0-2 0-4-.1-6-.5-8.6-5.7-12.6-14.2-10.9-8.8 1.8-13.8 7.6-15.8 16-.6 2.6-.8 5.3-.8 7.9-.1 8.7 0 17.3 0 26 0 1.6-.2 3.2-.3 5.2H883V74.2h15.7c1.5 3.5 1 7.2.3 11 0 .1.2.3.3.4zm-196 120.1h17.4v39.9c0 1.3-.1 2.7.1 4 .8 9.8 6.8 13.7 16.3 10.7 7.6-2.4 13.1-9.6 13.6-18.6.5-10 .3-20 .5-30 0-1.8.2-3.6.3-5.7 5.7-1.4 11-.6 16.8-.2v69.1c-5.3 1-10.5.7-16.3.2v-11.4c-1.8 2.1-2.8 3.3-3.8 4.6-8.3 9.5-21.7 11.2-32.1 6.9-8.8-3.6-12-11.2-12.3-20-.4-11.3-.2-22.7-.3-34-.2-5.2-.2-10.1-.2-15.5zm-267.6 69.7h-14.1v-69.7h15.8v12.5c5.1-7 10.3-12.1 18.1-13.4l.9-.3c3.8-.1 7.7-.7 11.4-.3 11 1.3 18.1 9.2 18.6 21.2.4 9.1.2 18.3.2 27.5V275c-5.6.9-11 .4-16.9.3-.1-2.1-.3-3.9-.3-5.6v-35c0-2.2-.3-4.3-.4-6.5.1-.1.2-.3.2-.4-.1-.2-.3-.4-.5-.7-2.5-5.8-4.6-7.2-10.5-7.2-10.8 0-19.1 8.5-19.6 20.5-.4 10.1-.1 20.3-.2 30.5 0 1.7.7 3.9-1.9 4.5-.2-.1-.5-.1-.8 0zm89-56.7c-1 .3-2 .4-2.9.8-2.3.9-4.4 2.5-4.1 5.1.3 1.8 1.7 4.1 3.3 5 3.5 2.1 7.5 3.5 11.3 5.3 3.4 1.6 7 3.1 10.2 5.2 12.7 8.6 12 25.9-1.7 33.2-11.4 6.1-23.1 4.9-34.6-.4-2.9-1.4-5.5-3.5-8.8-5.7 2.8-4.3 5.1-8 7.8-12 1.8 1 3.1 1.7 4.3 2.4 4.9 3.1 10.2 5 16.1 4.4 1.6-.1 3.3-.4 4.8-1.2 4-2 4.5-6.1 1.1-8.9-2.2-1.7-4.8-2.9-7.4-4.1-5-2.5-10.4-4.5-15.1-7.5-8.1-5.2-10.9-13-8.4-21.5 1.7-5.6 5.4-9.4 10.6-11.9 6.9-3.3 14.1-3.6 21.5-2.7.4.1.7.2 1.1.2 5.9 1 11.5 2.9 16.1 7.5-2 4-3.9 7.8-6.1 12.1-6.2-3-11.9-5.8-18.3-5.4-.3.1-.5.1-.8.1zm149.5 34.1c.9 4.3 3.8 6.5 7.9 7.2 2.4.4 4.9.6 7.4 1v14.7c-8.9 1-17.3.8-24.8-4.1-5.8-3.7-8-9.6-8.1-16.3-.1-9.8 0-19.7 0-29.5v-5c-3-.3-5.6-.6-8.6-.9v-12.7c2.7-.3 5.5-.7 9-1.1V187c5.7-1.5 10.9-.8 16.8-.6v20.1h15.5v13.6H674V252c-.1.1-.3.2-.2.2.1.3.3.4.4.6zm-87.7 22.4c-11.9-1.8-18-8.5-18.1-20.5-.1-11.1 0-22.3 0-33.7-3-.3-5.7-.7-8.7-1v-13.1c3-.2 5.7-.4 8.8-.6v-19c5.7-1.6 11.2-1.4 17.1-.5v19.8h15.5v13.5h-15.5v28.5c0 7.9 2.5 10.8 10.3 11.8 1.6.2 3.3.2 5.3.3v14.7c-4.7 1.1-9.3.7-13.9.1-.1-.1-.5-.2-.8-.3zm202-54.5c-3.3-.2-5.8-.4-8.7-.7v-12.9c2.8-.3 5.6-.6 8.9-.9V188c3.8-2.1 12.2-2.4 17-.6v19.2h15.6v13.5h-15c-.2 1.9-.5 3.2-.5 4.4 0 7.8.2 15.7-.1 23.5-.3 7.7 2.1 11.8 11.8 12.6 1.3.1 2.6 0 3.9 0v15c-9.2 1-17.9.8-25.6-4.6-5.2-3.6-7.2-9-7.2-15.1-.1-10 0-20 0-30-.1-1.6-.1-3.3-.1-5.2zm-173.1-90.9v14c-6 .9-11.1.9-16-.9-6.8-2.6-9.7-8.2-10.7-15-.3-1.6-.3-3.3-.3-5V51c0-1.3.2-2.6.3-4.5 5.5-.6 10.8-.6 16.9.1v73.1c.2 7.3 1.7 8.9 9.1 9.3.3.3.5.5.7.8zM402.3 275.1H385c0-32.4-.2-64.4.2-96.8h17.1v96.8zm151.4-201h15.6c1.5 4.9 1.3 65.2-.3 69.4h-15.4c-1.4-4.6-1.3-65.5.1-69.4zm311.2 69.3h-16c-.3-1.4-.8-2.9-.8-4.4-.1-20.1-.1-40.3-.2-60.4 0-1.4.3-2.9.5-4.6h16.1c1.3 3.5 1.7 62.6.4 69.4zM633.5 275H617v-68.9c5.3-1.7 10.7-.9 16.5-.4V275zM864.7 60.7c-1.4.4-2.7 1-4.1 1.1-3.8.2-7.6.1-11.7.1-1.7-5.3-1.3-10.1-.3-15.3h16.7v12.6c-.2.4-.4.9-.6 1.5zm-295.2.8h-16.2c-1.1-4.9-.5-9.6-.5-14.9 5.7-1 11-.7 16.7-.3v15.2zm63.9 131.7c-5.7.6-11 .9-16.5-.1v-14.7c5.6-.8 10.9-.7 16.5 0v14.8z"/><path d="M31.5 55c.3 0 .7 0 1 .1-.7.3-1.3.5-2 .8h.1l.9-.9zm139.1 164.7h-2 2zm694.1-159c.2-.5.4-1.1.6-1.6-.2.5-.4 1-.6 1.6zm94.2 45.3.3.6s-.2.1-.3.2c-.2-.3-.2-.5 0-.8zM178.7 296.7c.3 0 .5-.1.8-.1l-.4.2-.4-.1zm466.6-152.3 1.1.3c-.3-.1-.7-.2-1.1-.3zM959.4 102c.2.3.1.5-.1.7l-.2-.4.3-.3zm-778.6-1c.1.2.3.4.4.6-.1.1-.2.1-.3.2-.3-.2-.3-.5-.1-.8zm245.9 43.6zm29.8 59.8-.9.3.9-.3zM172.7 78.1l.6.9-.6-.9zm361.1 126.3c-.4-.1-.7-.2-1.1-.2.4.1.8.1 1.1.2zm81.6-74.6c-.2-.3-.4-.6-.6-.8.2.3.4.5.6.8zM451.9 59c0-.4.1-.8.1-1.2 0 .4-.1.8-.1 1.2zM30.5 55.9c-.1.2-.2.4-.1.3-.1.1 0-.1.1-.3.1 0 0 0 0 0zm494.2 162.8c.3 0 .5-.1.8-.1l-.4.2-.4-.1zm-361.2.6c-.3 0-.5 0-.8-.1.3-.2.5-.1.8.1zm-88.8-184c.2-.3.5-.4.8-.2-.3.1-.5.2-.8.2zm144.6 191.2c.4 0 .8.1 1.1.1-.3 0-.7-.1-1.1-.1zm249.5.6c.2.2.4.4.5.7 0 .1-.1.3-.2.4-.1-.4-.2-.8-.3-1.1zm361.2 2.5c.1.3.1.6.1.9 0 .1-.2.2-.4.3l.3-1.2zM194.9 243c.1-.3.2-.6.3-1 0 .4-.2.7-.3 1zm479.3 9.8c-.1-.2-.3-.4-.4-.5l.2-.2c.4.2.4.4.2.7zM622.1 111c.1.2.3.5.3.7 0 .1-.1.2-.2.3-.1-.2-.3-.5-.3-.7-.1 0 .1-.2.2-.3zm252.4 150.2c-.3.1-.6.3-1 .4.3-.1.6-.2 1-.4zm-438.8 14.2c.3 0 .6-.1.9-.1-.3 0-.6 0-.9.1zm150.8-.2.9.3c-.2-.1-.6-.2-.9-.3zm35.6-169.5c.1.3.2.5.2.8 0 .1-.2.2-.3.3-.1-.2-.1-.5-.1-.8 0-.1.2-.2.2-.3zm277.2-20.1-.4-.4.4.4z" class="st0"/></svg>