<svg xmlns="http://www.w3.org/2000/svg" xml:space="preserve" x="0" y="0" version="1.1" viewBox="0 0 1024 149.8"><style>.st0{fill-rule:evenodd;clip-rule:evenodd;fill:#36ad5d}</style><g transform="matrix(1.25 0 0 -1.25 -91.8 160.69)"><path d="M776.9 53.3c1.7 0 3.5.4 5 1.8 1.2 1.1 2.3 2.5 3.1 4.4.8 1.7 1.3 3.6 1.5 5.7.2 1.9.4 3.8.4 5.7 0 1.9-.2 3.8-.4 5.7-.3 2-.8 3.9-1.5 5.7-.8 1.8-1.9 3.2-3.1 4.4a7.05 7.05 0 0 1-5 1.8H740c-1.7 0-3.6-.4-5-1.8-1.2-1.1-2.3-2.6-3-4.4-.8-1.7-1.3-3.6-1.5-5.7-.2-1.9-.4-3.8-.4-5.7 0-1.9.2-3.8.4-5.7.3-2 .8-3.9 1.5-5.7.8-1.8 1.8-3.2 3-4.4 1.5-1.4 3.3-1.8 5-1.8h36.9zm18.8 17.6c0-3.8-.4-7.6-1.1-11.3-.8-3.7-1.9-7.2-3.4-10.3-1.5-3.1-3.2-5.6-5.3-7.6-2.2-2-4.6-3-7.1-3h-41.6c-2.4.2-4.7 1.2-6.8 3.3-2 2-3.7 4.6-5 7.6-1.4 3.1-2.5 6.5-3.2 10.2-.7 3.6-1.1 7.3-1.1 11 0 3.8.4 7.6 1.1 11.3.8 3.7 1.9 7.2 3.4 10.3 1.4 3.1 3.2 5.6 5.3 7.6 2.2 2 4.6 3 7.1 3h41.6c2.4-.2 4.7-1.2 6.8-3.3 2-2 3.7-4.6 5-7.6 1.4-3.1 2.5-6.5 3.2-10.2.7-3.6 1.1-7.3 1.1-11M697.2 97c.8 1.8 1.9 3.3 3.1 4.3 1.3 1.1 2.6 1.6 4.1 1.6 2.4 0 4.4-1.3 5.9-4.2 1.5-2.9 2.1-6.4 2.1-10.1V46c0-2-.4-3.7-1.3-5.2-.9-1.4-2-2.1-3.2-2.1-1.3 0-2.4.7-3.2 2.1-.9 1.4-1.3 3.2-1.3 5.2v31.8c0 .6 0 5.3-.3 5.7-.4-.1-2.1-3.4-2.4-3.8l-20.1-36.5a9.1 9.1 0 0 0-3-3.4c-1.2-.8-2.5-1.1-3.8-1.1s-2.6.3-3.8 1.1a8.4 8.4 0 0 0-3 3.4l-20 36.5c-.3.5-2 3.8-2.4 3.9-.3-.4-.3-5.1-.3-5.7V46c0-2-.4-3.7-1.3-5.2-.9-1.4-2-2.1-3.2-2.1-1.3 0-2.4.7-3.2 2.1-.9 1.4-1.3 3.2-1.3 5.2v42.7c0 3.7.6 7.2 2.1 10.1 1.5 2.9 3.5 4.2 5.9 4.2 1.5 0 2.8-.6 4-1.8 1.2-1.2 2.3-2.7 3.2-4.3l21-38.3c.3-.5.7-1 1.1-1.5.4-.4.8-.7 1.3-.7s.9.3 1.3.7c.4.5.8 1 1.1 1.5L697.2 97zm116.4-43.7h46.6c1.7 0 3.5.4 5 1.8 1.2 1.1 2.3 2.5 3.1 4.4.7 1.7 1.3 3.6 1.5 5.7.2 1.9.4 3.8.4 5.7 0 1.9-.2 3.8-.4 5.7-.3 2-.8 3.9-1.5 5.7-.8 1.8-1.9 3.2-3.1 4.4a7.05 7.05 0 0 1-5 1.8H809c-1.3 0-2.4.7-3.2 2.1-.9 1.4-1.3 3.2-1.3 5.2s.4 3.7 1.3 5.2c.9 1.4 2 2.1 3.2 2.1h53.1c2.5 0 4.9-.9 7.1-3 2.1-2 3.9-4.5 5.3-7.6 1.5-3.1 2.6-6.6 3.4-10.3.7-3.7 1.1-7.4 1.1-11.3 0-3.8-.4-7.5-1.1-11-.7-3.6-1.8-7-3.2-10.2-1.4-3-3-5.6-5-7.6-2-2.1-4.3-3.1-6.8-3.3h-54c-1.3 0-2.4.7-3.2 2.1-.9 1.4-1.3 3.2-1.3 5.2v24.8c0 2 .4 3.7 1.3 5.2.9 1.4 2 2.1 3.2 2.1 1.3 0 2.4-.7 3.2-2.1.9-1.4 1.3-3.2 1.3-5.2V53.3z" class="st0"/><path d="M565.7 55.1c1.5-1.4 3.3-1.8 5-1.8h36.8c1.7 0 3.5.4 5 1.8 1.2 1.1 2.3 2.5 3.1 4.4.8 1.7 1.3 3.6 1.5 5.7.2 1.9.4 3.8.4 5.7 0 1.9-.2 3.8-.4 5.7-.3 2-.8 3.9-1.5 5.7-.8 1.8-1.9 3.2-3.1 4.4a7.05 7.05 0 0 1-5 1.8h-36.8c-1.7 0-3.6-.4-5-1.8-1.2-1.1-2.3-2.6-3-4.4-.8-1.7-1.3-3.6-1.5-5.7-.2-1.9-.4-3.8-.4-5.7 0-1.9.2-3.8.4-5.7.3-2 .8-3.9 1.5-5.7.7-1.8 1.8-3.3 3-4.4m-34.8 8.5c1.5-1.5 3-3.2 4.5-4.8 1.8-2 3.5-4.1 5.2-6.2.7-.8 1.3-1.7 1.8-2.8.5-1.1.8-2.4.8-3.8 0-2-.4-3.7-1.3-5.2-.9-1.4-2-2.1-3.2-2.1-1.2 0-2.3.9-3.2 2.1-2.5 2.9-5 5.7-7.6 8.5-2.6 2.7-5.3 5.1-8.1 7.3-2.8 2.1-5.7 3.8-8.8 5.1-3.1 1.3-6.2 1.9-9.4 1.9h-18.1c-.8-.2-1.4-.8-1.9-1.7-.6-1-.8-2.2-.8-3.5V46c0-2-.5-3.7-1.4-5.2-.9-1.4-1.9-2.1-3.2-2.1-1.3 0-2.4.7-3.2 2.1-.9 1.4-1.3 3.2-1.3 5.2v14c0 2.4.3 4.8.9 7 .6 2.1 1.3 4.1 2.4 5.8 1 1.7 2.2 2.9 3.5 3.9 1.4 1 2.9 1.4 4.5 1.4h48c.9 0 1.6.5 2.3 1.4.7 1 1 2.2 1 3.7 0 1.4-.3 2.6-1 3.6-.6 1-1.4 1.5-2.3 1.5h-55c-1.3 0-2.4.7-3.2 2.1-.9 1.4-1.3 3.2-1.3 5.2s.4 3.7 1.3 5.2c.9 1.4 2 2.1 3.2 2.1h54.6c1.7 0 3.3-.5 4.9-1.6 1.5-1 2.8-2.4 4-4.2 1.2-1.8 2-3.9 2.7-6.2.7-2.5 1-5.1 1-7.7 0-2.7-.3-5.3-1-7.7-.6-2.3-1.5-4.4-2.7-6.2-1.1-1.8-2.5-3.2-4-4.2s-3-1.5-4.6-1.5m-133.6 7.3c0-1.9.2-3.8.4-5.7.3-2 .8-3.9 1.5-5.7.8-1.8 1.8-3.2 3-4.4 1.5-1.4 3.3-1.8 5-1.8h36.3c1.7 0 3.5.4 5 1.8 1.2 1.1 2.3 2.5 3.1 4.4.8 1.7 1.3 3.6 1.5 5.7.2 1.9.4 3.8.4 5.7v24.7c0 2 .4 3.7 1.3 5.2.9 1.4 2 2.1 3.2 2.1 1.3 0 2.4-.7 3.2-2.1.9-1.4 1.3-3.2 1.3-5.2V70.9c0-3.8-.4-7.6-1.1-11.3-.8-3.7-1.9-7.2-3.4-10.3-1.5-3.1-3.2-5.6-5.3-7.6-2.2-2-4.6-3-7.1-3H404c-2.4.2-4.7 1.2-6.7 3.3-2 2-3.7 4.6-5 7.6-1.4 3.1-2.5 6.5-3.2 10.2-.7 3.6-1.1 7.3-1.1 11v24.7c0 2 .4 3.7 1.3 5.2.9 1.4 2 2.1 3.2 2.1 1.3 0 2.4-.7 3.2-2.1.9-1.4 1.3-3.2 1.3-5.2V70.9zm-82.5-7.3v-6.9c0-.9.3-1.7.7-2.3.5-.7 1.2-1 1.9-1h57.4c1.3 0 2.4-.7 3.2-2.1.9-1.4 1.3-3.2 1.3-5.2s-.4-3.7-1.3-5.2c-.9-1.4-2-2.1-3.2-2.1H317c-1.4 0-2.8.5-4.1 1.4-1.4.9-2.6 2.3-3.6 3.9-1.1 1.8-2 3.8-2.6 6.1-.7 2.5-1 5.3-1 8v13.1c0 2 .3 4.4 1.5 5.5 1.2 1.2 3.1 1.4 4.5 1.4h61.1c1.3 0 2.4-.7 3.2-2.1.9-1.4 1.3-3.2 1.3-5.2s-.4-3.7-1.3-5.2c-.9-1.4-2-2.1-3.2-2.1h-58zm-9.1 32.1c0 2 .4 3.7 1.3 5.2.9 1.4 2 2.1 3.2 2.1h64.6c1.3 0 2.4-.7 3.2-2.1.9-1.4 1.3-3.2 1.3-5.2s-.4-3.7-1.3-5.2c-.9-1.4-2-2.1-3.2-2.1h-64.6c-1.3 0-2.4.7-3.2 2.1a9.8 9.8 0 0 0-1.3 5.2m-17.9 0c0 2 .4 3.7 1.3 5.2.9 1.4 2 2.1 3.2 2.1s2.4-.7 3.2-2.1c.9-1.4 1.3-3.2 1.3-5.2V53.2c0-3.9-.8-7.4-2.6-10.3-1.7-2.8-3.9-4.2-6.4-4.2-.9 0-1.7.2-2.6.6-.8.4-1.6.9-2.3 1.6l-41.7 40.9c-.9.9-1.9 1.7-2.9 2.6-.5.4-1.2.9-1.8.9-1 0-1.4-1.2-1.5-2.5-.3-2.5-.4-5.4-.4-8V46c0-2-.4-3.7-1.3-5.2-.9-1.4-2-2.1-3.2-2.1-1.3 0-2.4.7-3.2 2.1-.9 1.4-1.3 3.2-1.3 5.2v42.5c0 3.9.8 7.4 2.6 10.3 1.7 2.8 3.9 4.2 6.4 4.2.9 0 1.7-.2 2.6-.6.8-.4 1.6-.9 2.3-1.6l41.7-40.9c.9-.9 1.9-1.7 2.9-2.5.5-.4 1.2-.9 1.8-.9 1 0 1.4 1.2 1.5 2.5.3 2.5.4 5.4.4 8v28.7zm338.6-24.8c0-3.8-.4-7.6-1.1-11.3-.8-3.7-1.9-7.2-3.4-10.3-1.4-3.1-3.2-5.6-5.3-7.6-2.2-2-4.6-3-7.1-3h-41.6c-2.4.2-4.7 1.2-6.7 3.3-2 2-3.7 4.6-5 7.6-1.4 3.1-2.5 6.5-3.2 10.2-.7 3.6-1.1 7.3-1.1 11 0 3.8.4 7.6 1.1 11.3.8 3.7 1.9 7.2 3.4 10.3 1.5 3.1 3.2 5.6 5.3 7.6 2.2 2 4.6 3 7.1 3h41.6c2.4-.2 4.7-1.3 6.8-3.3 2-2 3.7-4.6 5-7.6 1.4-3.1 2.5-6.5 3.2-10.2.6-3.6 1-7.3 1-11" class="st0"/><path d="M196.2 66.5c1.4-.7 3-.7 4.1.1 1.8 1.3 1.8 4.4 0 6.9-1.7 2.3-4.2 3.3-6.1 2.5-2.9 2-7.1 6.3-9.5 9.6 1.1 1.7.5 4.3-1.4 6.3-2.2 2.2-5.2 2.8-6.9 1.2-1.6-1.6-1.2-4.6 1-6.8 1.9-1.9 4.4-2.6 6.1-1.7 3.3-2.5 7.6-6.8 9.2-10.1-.6-1.4-.4-3.3.6-5.1.7-2.2-1.3-4.3-4.5-4-2.5 1-5 .7-6.6-.9-2.3-2.4-1.7-6.7 1.4-9.7 3.1-3 7.4-3.5 9.7-1.1 2 2 1.8 5.5-.3 8.3-1 1.3-.9 4.7 3.2 4.5m-18.7 15.3c3.5-3.4 4.2-8.3 1.6-11-2.6-2.7-7.5-2.1-11 1.3-3.5 3.4-4.2 8.3-1.6 11 2.6 2.7 7.5 2.1 11-1.3M189 98c-1.7 1.7-4 2.2-5.1 1.1-1.2-1.1-.8-3.3.9-5 1.7-1.7 4-2.2 5.1-1.1 1.1 1 .7 3.3-.9 5m-46.9-13c3.9-3.8 4.4-9.6 1-13.1-3.3-3.4-9.2-3.1-13.1.7-3.9 3.8-4.4 9.6-1 13.1 3.4 3.4 9.2 3.1 13.1-.7m-21.4 16.9c-3.9 3.8-9.7 4.1-13.1.7-2.5-2.6-2.9-6.6-1.2-10-.1-4.2-2.3-7.1-7.6-5.8-3.4 1.4-7.2.9-9.6-1.6-3.3-3.4-2.9-9.3 1-13.1 2.9-2.8 6.8-3.7 10.1-2.6 5 1.7 9.7-1.6 10-6.4-.7-3.1.4-6.7 3.1-9.3 3.9-3.8 9.8-4.1 13.1-.7 3.3 3.4 2.9 9.3-1 13.1-3.4 3.3-8.3 4-11.7 1.8-4-.5-8.3 3-8.3 7 .5 1.9.3 3.9-.5 5.8-.6 4.2 2.7 8.6 6.9 6.6 3.5-1.7 7.5-1.2 10.1 1.4 3 3.5 2.6 9.3-1.3 13.1m-20.9 8.7c-2.8 1.9-6 1.9-7.2.1-1.2-1.9 0-4.9 2.8-6.8 2.8-1.9 6-1.9 7.2-.1 1.2 1.8 0 4.9-2.8 6.8m9.7-62.7c-2.3 2.3-5.8 2.4-7.8.4s-1.7-5.5.6-7.8 5.8-2.4 7.8-.4 1.8 5.5-.6 7.8m53.3 18.6c-4.2 4.1-10.2 4.8-13.4 1.6-3.2-3.3-2.3-9.2 1.9-13.4 4.2-4.1 10.2-4.8 13.4-1.6 3.2 3.3 2.4 9.3-1.9 13.4m-14.9-28.9c-.9-4.2 3.2-9.1 7.5-8.9 1.7.4 3.7.2 5.6-.5 5.2-.5 8.5 3.7 8.2 7.9-2.7 3.5-3 7.9-.5 10.4 2.8 2.9 8.1 2.2 11.9-1.4 3.8-3.6 4.5-8.9 1.7-11.8-1.7-1.8-4.4-2.2-7.1-1.4-6.1.1-9.3-4.5-7.8-9.2 2.1-3.6 2.1-7.6-.3-10.1-3-3.1-8.8-2.4-12.9 1.5-3.1 3.1-4.4 7.2-3.4 10.3.8 4.8-3.5 9.2-8.8 8.5-2.9-.5-6.2.5-8.6 2.9-3.9 3.8-4.4 9.6-1 13.1 3.3 3.4 9.2 3.1 13.1-.7 2.9-2.9 3.9-7.2 2.4-10.6m43.4-11.8c-1.9 2-4.7 2.6-6.1 1.2-1.4-1.3-1-4 .9-6.1 1.9-2 4.7-2.6 6.1-1.2 1.4 1.4 1 4.1-.9 6.1m-62.7 5.5c-2.3 2.3-5.8 2.4-7.8.4s-1.7-5.5.6-7.8c2.3-2.2 5.8-2.4 7.8-.4 2 2.1 1.7 5.5-.6 7.8m28.5 68.3c-3.5 3.4-8.4 4-11 1.3-2.6-2.7-1.9-7.6 1.6-11 3.5-3.4 8.4-4 11-1.3 2.6 2.7 1.9 7.6-1.6 11M168 106c2.4-2.2 3-5.2 1.5-6.8-1.5-1.5-4.7-1-7 1.2-1.6 1.5-2.5 3.5-2.3 5-2 3.2-7.1 7.1-10.8 8.9-1.5-.9-3.8-.5-5.8 1-2.6.4-3.4-1-3.4-2.4 1.8-2.7 2-5.8.3-7.7-2.2-2.5-6.9-1.9-10.4 1.2-3.5 3.1-4.6 7.6-2.4 10.1 2.2 2.4 6.7 1.9 10.2-1 2.1-.3 3.2 1.1 3.2 2.9-.7 1.6-.7 3.3.3 4.3 1.5 1.5 4.7 1 7-1.2 1.9-1.8 2.7-4.1 2.2-5.7 2.6-2.9 7.4-6.7 10.7-8.4 1.6 1.2 4.5.6 6.7-1.4m-46.9 19.4c-2.5 1.7-5.7 1.6-7.1-.3-1.4-1.9-.4-4.9 2.1-6.6 2.5-1.7 5.7-1.6 7.1.3 1.4 1.9.5 4.8-2.1 6.6m52.3-13.8c-1.7 1.7-4 2.2-5.1 1.1-1.2-1.1-.8-3.3.9-5 1.7-1.7 4-2.2 5.1-1.1 1.1 1 .7 3.3-.9 5m28.7-64.7c-1.7 2.2-4.3 3.1-5.9 2-1.6-1.1-1.5-3.9.1-6.1 1.7-2.2 4.3-3.1 5.9-2 1.6 1.1 1.5 3.9-.1 6.1" class="st0"/></g></svg>