<svg xmlns="http://www.w3.org/2000/svg" xml:space="preserve" x="0" y="0" version="1.1" viewBox="-250 0 1524 568.3"><style>.st0{fill:#ec2124}</style><path d="M45.2 194.5H33.1c.2-.5.2-1 .5-1.4 3.7-5.5 3.3-11.2 1.2-17.1-1.9-5.2-5-9.7-8.8-13.5-5.2-5.1-10.8-9.7-16.3-14.6-.5-.5-1.1-.9-1.9-1.6 4.7 0 9.2.3 13.5-.1 9.4-.7 18.3-3 26.1-8.6 3.7-2.6 6.3-6.1 6.9-10.7l1.2-2.4.3.3c6 8.5 14.3 13.5 24 16.6 5 1.6 10 2.5 15.4 1.8 9-1.2 14.8-6.4 18.3-14.5 3.6-8.3 3.7-16.9 1.9-25.5-3.3-15.7-11.3-29.1-21.3-41.4-1.3-1.6-2.7-3.2-4-4.8.1-.1.2-.2.3-.4 1.2.3 2.5.8 3.7.9 12.2 1.5 23.7-6.8 26.7-16.9 1.5-5.1 2.4-10.1 2.3-15.3-.2-6-1-12-1.4-18-.1-1.7 0-3.4.3-5.3.5 1.4 1 2.7 1.5 4.1 4.4 12.2 9.5 24 18.1 33.9 4.6 5.3 10.3 8.9 17.7 8.7 3.1-.1 5.8-1.2 8.4-2.7.8 0 1.5.1 1.5 1.1-2.5 9.6-3.3 19.3-3.9 29.2-.8 11.9.8 23.5 4.3 34.8a42.5 42.5 0 0 0 10.9 17.9c3.1 3 6.8 4.8 11.2 4.6 4.2-.2 7.4-2.6 10.2-5.5 3.8-3.9 6.7-8.5 9.1-13.3 4.4-8.6 7.6-17.5 9.5-26.9.5-.6-.1-2 1.4-2 3.1 4 6.6 7.5 11.2 9.8 7.8 4 15.8 4.2 24 1.5 8.3-2.8 15.4-7.6 21.7-13.6.5-.5 1-.8 1.9-1-.1.5-.2 1.1-.5 1.6-4.2 8.5-6.9 17.5-7.7 27-.5 5.5-.9 11.1-.7 16.6.4 8.6 2.1 17 6.6 24.7 2 3.4 4.5 6.3 7.6 8.7.4.3.7.7 1.3 1.4-2.9.4-5.4.6-7.9 1-8.5 1.4-16.6 4-23.9 8.7-7.9 5.2-13.3 12.5-17.3 20.9-3.6 7.7-5.3 15.8-4.9 24.2.5 9.3 2.1 18.5 6.9 26.7.4.6.6 1.3 1.1 2.5-2.1-.3-3.7-.5-5.3-.9-7.2-1.7-14.4-3.6-21.6-5.3-5.3-1.3-10.7-2.1-16.3-1.9-8.5.2-14.8 6.2-15.8 14.7-.9 7.5.3 14.8 1.9 22.1 1.5 6.7 3.6 13.2 5.5 19.8 2.9 9.8 5.8 19.7 6.9 29.9 1 9.6 2.5 19.3 3.1 28.9.7 9.7.7 19.5 1 29.3 0 1.4.1 2.8.2 4.2l-.1.1.1.1c0 .4 0 .7.1 1.1l-.1.1c0 .1.1.2.2.3-.1 3.3-.3 6.6-.3 10-.2 8.6-.2 17.2-.5 25.8-.2 5.5-.6 10.9-.8 16.4h-.1.1c0 .4-.1.8-.1 1.2 0 .2-.1.4-.1.6 0 .5-.1 1-.1 1.5v.1c-.3 5.1-.7 10.2-1 15.3l-.1.1.1.1c-.1.8-.1 1.7-.2 2.5-.1.1-.1.2 0 .3 0 .6-.1 1.2-.1 1.7h-.1.1c0 .4-.1.7-.1 1.1 0 .2 0 .4-.1.6-.1 1-.1 1.9-.2 2.9l-.3 2c-1.1 11.9-2.3 23.7-3.4 35.6-.3 3.2-.5 6.4-.6 9.5 0 .5.7 1.3 1.3 1.5 2.3.7 4.7 1.3 7 1.9 4.3 1 7.8 3 10.8 6.3 1.7 1.9 3.7 3.5 5.6 5.3.9.8 1.6 1.8 2.6 2.9-2 1.1-3.3.3-4.5-.6-4.3-3.2-9.1-5.3-14.1-7-1.2-.4-2.5-.4-3.7-.6l-.3.6c.5.8 1 1.6 1.5 2.3 2.7 4.3 3.4 9.2 4 14.1.4 3.1 1 6.2 2.9 8.8.3.4.4 1.5.3 1.6-.6.3-1.5.6-2 .4-3-1-5-3.3-6-6.2-1-3-1.7-6.1-2.1-9.3-.6-4.8-4.1-7.4-7.6-9.9-.3-.2-1.3 0-1.6.3-1.8 2-3.8 3.9-5.3 6.2-1.3 1.9-2 4.2-3 6.3 0 .2 0 .3-.1.5v1.3l.3 3.3c.8 6.7-1.7 12.3-5.5 17.6l-.5.5c-.1 0-.3.1-.4.1-1.3.4-2.4.7-2.8-1.1 0-.1 0-.3.1-.4 0-.1.1-.3.1-.4 1.1-3.8 3.1-7.5 2.8-11.6-.1-1.8-.3-3.6-.6-5.4-.7-4.1-.1-8 2.2-11.6 1.8-2.9 3.6-5.7 5.6-8.8-2.2.3-4.2.6-6.2.9-3.5.6-7 1.1-10.4 1.9-3.5.9-6.2 3-8.2 6-.7 1.1-1.5 2.6-3.3 1.9-1-.4-1.2-2.3-.3-4 .7-1.4 1.7-2.7 2.7-3.9 5.1-5.4 11.4-8.1 18.7-9.1 2.9-.4 5.7-1.6 8.4-2.8 1-.5 2-1.9 2.2-3 1.4-6.6 2.7-13.3 3.7-20 1.1-7.5 1.8-15.1 2.5-22.7.5-5 .7-9.9 1-14.9.4-6.5.9-13 1.2-19.5.3-8.3.3-16.6.5-25 0-2.4.4-4.7.4-7.1-.1-9.2-.2-18.3-.4-27.5-.1-5.6-.3-11.2-.8-16.8-1.3-15.3-2.5-30.7-6.2-45.7-3.1-12.6-6-25.2-9.2-37.8-2.1-8.3-5.1-16.4-9.4-24-1.2-2.1-2.7-4-4.3-5.8-2.4-2.6-5.5-4-9-4.3l-.1-.1-.1.1c-.5 0-1-.1-1.6-.1h-.1c-9.7.6-17.5 5.6-24.8 11.3-4.7 3.7-9 8-13.5 12-.5.5-1.1.8-1.7 1.2l-.3-.3c1.1-3.5 2.4-7 3.3-10.6 2.4-9.6 2.7-19.2.4-28.8-2.2-9.2-8-15.7-15.8-20.6-7.1-4.5-14.9-7-23-8.9-7.2-1.7-14.4-2.7-21.8-3.1v-.1.1c-1.9 0-3.8-.1-5.7-.1h-3.4l-.4.4zm144.6-5.5c-.6-2.9-.7-5.9-1.8-8.7-2-5.4-5.5-9.3-11.7-9.9-5.8-.6-10.6 1.5-14.7 5.4-6.3 6-8.7 13.6-8 22.1.3 4 1.5 7.8 4.6 10.6 3.2 3 7.1 4.7 11.5 4.3 10.2-1.1 20.6-12.1 20.1-23.8z" class="st0"/><path fill="#57575a" d="M1016.3 414.2c-.1 7.5-.1 15.1-.2 22.6 0 1.9 0 3.9-.1 5.8-.4.4-1.1.8-1.2 1.3-2.9 14.4-9.4 27.1-18.6 38.3-6.4 7.9-14.4 13.9-23.5 18.5-7.5 3.7-15.3 6.1-23.5 7.4-5.4.9-10.9.8-16.4.3-6.7-.6-13.1-2-19.4-4.3-12.4-4.5-22.6-12.1-31.2-21.9-7.5-8.4-12.7-18.1-16.3-28.7-3.8-11.2-4.6-22.7-3.7-34.3.6-8.4 2.4-16.7 6.2-24.4 3.2-6.6 6.5-13 11-18.8 12.3-15.9 28.5-25.5 48.3-28.8 11.1-1.9 22.1-.8 32.9 2.3 15.2 4.4 27.7 12.7 37.1 25.4 6 8.1 11.6 16.5 14.7 26.2 1.1 3.7 1.6 7.5 2.5 11.3.2.8.5 1.5.8 2.3.2-.1.4-.3.6-.5zm-76.1 68.5c1.9-.2 4.5-.2 7-.6 2.6-.5 5.1-1.2 7.6-2.1a52.26 52.26 0 0 0 26.2-21c8.1-12.4 10.6-26.2 8.3-40.8-2.5-16.3-10.7-29.1-24.5-38.1-11.1-7.2-23.2-9.3-36.1-6.4-14.3 3.3-24.9 12.1-32.7 24.3-4.2 6.6-6.5 13.8-7.4 21.6-.7 5.8-.7 11.5.3 17.2 2.2 12.7 7.7 23.6 17.4 32.3 9.4 8.6 20.3 13.5 33.9 13.6zM569.8 280.3c-14 0-26.9-3.7-38.8-10.9-16-9.6-26.9-23.5-33.6-40.9-2.7-7.1-4.4-14.4-5.1-22-.5-6-.1-11.9.4-17.8.8-9.7 3.7-18.7 8-27.3 5.6-11.2 13-20.8 23-28.3 8.9-6.7 18.7-11.4 29.6-13.7 6.7-1.4 13.6-2.6 20.4-1.8 9.2 1 18.2 3.1 26.7 6.8 11.1 4.8 19.9 12.6 27.3 22 4.2 5.4 7.9 11.1 11 17.2 3.5 6.9 5.3 14.3 6.8 21.7 1 5.2 1.6 10.4 1.3 15.7-.8 14.8-4.8 28.6-12.5 41.3-6.9 11.4-15.7 20.8-27.2 27.6-8.1 4.8-16.8 7.9-26.1 9.3-3.8.6-7.5.8-11.2 1.1zm50.7-81.2c-.2-2.1-.2-4.1-.6-6.1-1.1-5.2-1.9-10.6-3.7-15.5-3.4-9.2-9.3-16.9-17-23-11.7-9.2-25-12.9-39.6-9.7-16.2 3.6-27.7 13.7-35.5 28-5.9 10.9-7 22.9-5.1 35 2.7 17 11.2 30.4 26.2 39.3 10.4 6.2 21.5 8.7 33.6 5.9 11.1-2.5 20.1-8.3 27.7-16.7 9.6-10.5 13.1-23.4 14-37.2zm93.8 202.5v90.1c0 2.8-.3 5.5-1.7 8-2.4 4.3-6.1 6.3-11 6.2-4.9-.1-8.8-2.1-10.9-6.7-.9-2-1.4-4.3-1.5-6.4-.1-43.4-.1-86.8-.1-130.2 0-5.5 2.1-9.7 7.2-12.1 5.5-2.5 11.6-1 15.2 4 8.3 11.4 16.6 22.9 24.9 34.4 8 11 16 22 23.9 33 7.4 10.2 14.7 20.5 22.1 30.8.2.3.3.8.4 1.2.3-.2.5-.3.8-.5.1-.7.2-1.4.2-2.1 0-28.4-.1-56.8-.1-85.2 0-3.2.3-6.4 1.7-9.3 3.9-7.9 14.5-9.2 20.2-2.5 2.1 2.5 3.2 5.2 3.2 8.5v131c-.1 5.3-3.2 9.7-8 11.2-5.6 1.8-10.7.5-14-4-6.5-8.8-12.9-17.7-19.3-26.6-9.7-13.4-19.3-26.8-29-40.2-7.4-10.3-14.9-20.6-22.3-30.9-.5-.7-1.1-1.4-1.6-2.1 0 .2-.1.3-.3.4zM794 224.9V135c0-7 4.6-12.8 11.1-13.4 4.5-.4 8.3 1.1 11.1 4.7 1.9 2.4 2.9 5.1 2.8 8.3 0 43.3-.1 86.7.1 130 0 6.6-4.5 11.1-9.3 12.2-4.2 1-8.3.4-11.4-2.8-2.2-2.3-4.2-5-6.1-7.6-10.1-13.9-20.1-27.9-30.1-41.9-5.2-7.3-10.5-14.5-15.7-21.8-6.9-9.5-13.8-19-20.7-28.4-.3-.4-.7-.8-1-1.2-.2 0-.3 0-.5.1v90.2c0 3.4-.5 6.6-2.7 9.4-4.1 5.2-12.1 6.2-17.3 2-3.3-2.6-5-5.9-5-10.2.1-43.6.1-87.2 0-130.8 0-8.6 7.1-14.8 16.4-12.2 3 .8 5.1 3.1 6.8 5.5 17.8 24.5 35.6 49.1 53.3 73.7 5.7 7.8 11.3 15.7 16.8 23.5.3.4.4 1 .6 1.6.3-.5.5-.7.8-1zM309.1 427.6v-64.2c0-3.1.4-6.1 2.1-8.8 2.7-4.2 6.7-6.2 11.6-6.2 13.4-.1 26.7 0 40.1 0 5.5 0 11-.1 16.5 0 9.1.3 18 2 25.9 6.7 12.5 7.4 20.4 18.4 23.2 32.8 2.5 12.8.1 24.6-7 35.5-3.2 5-6.9 9.5-11.9 12.9a49 49 0 0 1-20.7 8.2c-4.5.7-9.1.9-13.7.9-12.7.1-25.3 0-38 0-2.5 0-2.5 0-2.5 2.6v47.1c0 4.2-1.9 7.4-5.3 9.5-7.7 4.7-19 .6-19.8-8.8-.2-2.3-.4-4.6-.4-6.8-.1-20.4-.1-40.9-.1-61.4zm49.4-7.5c6.7 0 13.4.1 20-.1 2.9-.1 5.8-.4 8.6-1.2 10.2-2.9 16.3-11 16.6-20.8.5-12.6-9.1-23.8-23.9-24.1-14.4-.3-28.8 0-43.2-.1-1.7 0-2.1.6-2.1 2.2.1 14 .1 28.1 0 42.1 0 1.8.7 2 2.2 2 7.3-.1 14.6 0 21.8 0zm556.1-203.4v2.7c0 14.6.1 29.2-.1 43.7 0 2.3-.5 4.7-1.2 6.9-1.8 5.6-7.6 8.8-13.6 7.8-6.2-1-10.6-5.8-10.6-11.8-.1-21.8 0-43.6 0-65.4v-66.9c0-2.5.2-4.8 1.4-7 2.3-4.3 5.9-6.8 10.9-6.8 20 0 40.1-.1 60.1 0 11.7.1 22.3 3.9 31.1 11.6 7.4 6.6 12.6 15 15 24.7.8 3.3 1.6 6.6 1.7 10 .2 11.9-3.4 22.6-10.8 32.1-7.5 9.6-17.4 15.3-29.4 17.3-3.3.5-6.6.8-9.9.8-14 .1-28.1 0-42.1 0-.8.3-1.5.3-2.5.3zm0-25.5c.6.1.9.1 1.3.1 14.9 0 29.9.1 44.8-.1 6.2-.1 11.6-2.6 16.1-6.9 7.7-7.5 8.9-19.5 2.8-28.4-4.6-6.8-11.1-10.5-19.5-10.5h-42.8c-2.7 0-2.7 0-2.7 2.8v43zm-522.1 89c-13.4.2-26-2.8-37.9-8.8-6.7-3.4-12.8-7.8-18.4-12.9a79.8 79.8 0 0 1-20.1-28c-3.2-7.3-5.1-15-6.2-23-1.5-11.4-.3-22.5 3.5-33.1 4.4-12.5 11-23.9 20.8-33.2a83.87 83.87 0 0 1 44.4-22.2c5.3-.9 10.8-1.4 16.1-1.3 8.5.2 16.9 2 25.1 4.5A71.7 71.7 0 0 1 443 134c6.7 5.2 8.4 13.7 3.6 20-2.8 3.7-6.9 4.9-11.4 4.6-3.6-.2-6.2-2.2-8.9-4-8.4-5.8-17.6-9.5-27.9-10.4-18.8-1.7-34.7 4.6-47.8 17.9-7.3 7.4-12.3 16.4-14 26.7-2.7 16.4.9 31.3 11.3 44.3 9 11.2 21 17.7 34.9 20.2 16.4 2.9 31.5-.8 44.8-10.8 5.2-4 12.7-3.2 16.8-.3 4 2.9 5.1 7 4.9 11.7-.3 5.4-3.5 8.7-7.7 11.4-9.3 6-19.2 10.6-30 12.9-3.1.7-6.3 1.2-9.4 1.5-3.3.3-6.5.3-9.7.5zM489.3 429c0-16.7 4.3-30.4 12.1-43.1 13-21.3 32.4-33.4 56.5-38.1 5.5-1.1 11.2-1.5 16.8-1.3 11 .3 21.8 2.6 31.9 6.9 6 2.5 11.8 5.5 16.9 9.7 5.5 4.6 7.4 12.1 4.1 18.1-2 3.7-5.3 5.6-9.6 6-4.6.4-8.4-1.1-11.9-3.9-7.6-5.8-16.2-9.2-25.6-10.3-19.4-2.4-36.1 3.5-49.8 17.3-7.6 7.6-12.7 16.8-14.4 27.6a54.3 54.3 0 0 0 1.3 23.7c2.5 9.1 6.8 17.2 13.5 23.8 7.6 7.7 16.9 12.7 27.4 15.5 6.2 1.6 12.5 2 18.8 1.6 10.6-.7 20.3-4.3 29-10.5 1.2-.8 2.4-1.6 3.7-2.3 5.5-3.2 12.9-1.2 16.6 3.2 3.3 4 3.9 11.7.4 16.1-2.2 2.7-5.2 4.7-8.2 6.6a85.73 85.73 0 0 1-34.6 12.4c-12.8 1.8-25.4.7-37.6-3.1a80.6 80.6 0 0 1-30.7-18.2 82.5 82.5 0 0 1-22.8-36c-2.6-7.6-3.9-15.5-3.8-21.7zM169.7 563.6c.4 1.8 1.6 1.5 2.8 1.1l-.6 1.5h-2.1c0-.8-.1-1.7-.1-2.6zm52.1-477.5c-1.5-.1-.9 1.3-1.4 2v-2.6c.1-.1.3-.2.4-.3.3.3.6.6 1 .9zm-52.7-38.9c0-1-.7-1.1-1.5-1.1.4-.3.9-.6 1.8-1.2-.2 1.1-.3 1.7-.3 2.3zM55.4 124.5l-1.2 2.4c0-.8 0-1.7.1-2.4.3-1 .8-.6 1.1 0zm123.6 422-.3-3.3.3 3.3zm18-75 .3-2-.3 2zm-24.1 93.1.5-.5c-.1.2-.3.3-.5.5zm24.9-101.5c-.1-.1-.1-.2 0-.3 0 .1.1.1.1.2s0 .1-.1.1zm-27.9 99.7c0 .1-.1.3-.1.4 0-.1.1-.3.1-.4zm8.7-20.8c0-.2 0-.3.1-.5 0 .1.1.2.1.3 0 .1-.1.1-.2.2zM201 389.4c-.1-.1-.1-.2-.2-.3l.1-.1c.1.1.1.3.1.4zm-1.8 53.9c0-.2.1-.4.1-.6 0 .2-.1.4-.1.6zm-1.7 23.3c0-.2 0-.4.1-.6-.1.2-.1.4-.1.6zm-44.3-224.2.1-.1.1.1zm44.8 218v-.1l.1-.1zm-.3 4.5h-.1.1zm818.6-20.3v.5c-.1-.1-.1-.2-.2-.3 0-.1.1-.1.2-.2zM55.8 124.8zm143.3 320.1v-.1l.1.1zm.3-3.3-.1-.1h.1zM45.2 194.5l.1-.1v.1zm3.3-.1h.2l-.1.1zm5.9.1zm97.2 47.8h.1-.1zm49.3 145.6-.1-.1.1-.1.1.1z"/><path fill="#fefefe" d="M189.8 189c.5 11.7-9.8 22.7-20 23.8-4.4.5-8.3-1.2-11.5-4.3-3.1-2.9-4.3-6.7-4.6-10.6-.7-8.5 1.7-16.1 8-22.1 4.1-3.9 8.9-6.1 14.7-5.4 6.1.7 9.7 4.6 11.7 9.9.9 2.7 1.1 5.8 1.7 8.7zm-23.8 6.3c.2 1.1.2 2.2.5 3.3 1.5 5.3 7.8 7.7 11.9 4.3 3.3-2.7 5.2-6.2 5.1-10.5 0-3.5-1.2-6.7-4.6-8.2-3.1-1.4-6-.4-8.5 1.8-2.8 2.4-4.3 5.5-4.4 9.3z"/><path d="M166 195.3c.1-3.8 1.7-6.9 4.4-9.3 2.4-2.1 5.4-3.2 8.5-1.8 3.4 1.6 4.6 4.7 4.6 8.2 0 4.3-1.9 7.8-5.1 10.5-4 3.3-10.3 1-11.9-4.3-.3-1.1-.4-2.2-.5-3.3z" class="st0"/></svg>