<svg xmlns="http://www.w3.org/2000/svg" xml:space="preserve" x="0" y="0" version="1.1" viewBox="0 0 1024 255.1"><style>.st1{fill:#fff}.st3{fill:none;stroke:#ccc;stroke-width:3.4544;stroke-miterlimit:10}.st14{fill:#37bcd2}</style><g><g><g><g><path fill="#ebebeb" d="m223.8 191.9-103.7 60.7v-120l103.7-60.7z"/><path d="m223.7 72.2-104.6 61.1L12.5 73.6l104.5-61z" class="st1"/><path fill="#fafafa" d="m120.6 133.2.4 119.1-107-60-.5-119.1z"/></g><g><path d="m16.4 196.9 3.3-6.1" class="st3"/><path fill="none" stroke="#ccc" stroke-dasharray="13.57 5.65" stroke-miterlimit="10" stroke-width="3.45" d="M22.4 185.9 113.6 20"/><path d="m115 17.5 3.3-6.1m37.7 221-1.1-6.9" class="st3"/><path fill="none" stroke="#ccc" stroke-dasharray="13.23 5.51" stroke-miterlimit="10" stroke-width="3.45" d="M154 220.1 120.6 19.5"/><path d="m120.2 16.8-1.1-6.8M76.9 229.4l3.2-6.2" class="st3"/><path fill="none" stroke="#ccc" stroke-dasharray="13.53 5.64" stroke-miterlimit="10" stroke-width="3.45" d="m82.6 218.2 85.3-168.5"/><path d="m169.1 47.1 3.2-6.1M54 46.2l6.3 2.9" class="st3"/><path fill="none" stroke="#ccc" stroke-dasharray="13.28 5.54" stroke-miterlimit="10" stroke-width="3.45" d="M65.3 51.5 216 122.6"/><path d="m218.5 123.7 6.2 3m-24.4-40.6 1.5 6.7" class="st3"/><path fill="none" stroke="#ccc" stroke-dasharray="12.94 5.39" stroke-miterlimit="10" stroke-width="3.45" d="m203 98.1 19.3 86.8"/><path d="m222.9 187.6 1.5 6.7M12.7 123l6.5 2.1" class="st3"/><path fill="none" stroke="#ccc" stroke-dasharray="14.45 6.02" stroke-miterlimit="10" stroke-width="3.45" d="m25 127 191.8 62.4"/><path d="m219.6 190.3 6.6 2.2m-1.5-65.8-5.7 3.9" class="st3"/><path fill="none" stroke="#ccc" stroke-dasharray="14.14 5.89" stroke-miterlimit="10" stroke-width="3.45" d="M214.2 134 85 223.8"/><path d="m82.6 225.5-5.7 3.9m-63.5-32.5 6-3.5" class="st3"/><path fill="none" stroke="#ccc" stroke-dasharray="13.08 5.45" stroke-miterlimit="10" stroke-width="3.45" d="m24.1 190.6 109.6-64.2"/><path d="m136 125 6-3.5M54 48.4l.9 6.8" class="st3"/><path fill="none" stroke="#ccc" stroke-dasharray="14.61 6.09" stroke-miterlimit="10" stroke-width="3.45" d="m55.7 61.3 20.7 161.2"/><path d="m76.8 225.5.9 6.9" class="st3"/><path fill="none" stroke="#6d6d6d" stroke-miterlimit="10" stroke-width="3.45" d="m13.4 72 107.5 61.7m-.7 117.5 1.1-118.6M223.9 72l-52.4-30.3m51.7 85.7V71.3m-66.5 160.3-37.2 20.5m-42.6-22.7 43.7 22.7m78.6-165.7 24.4-14.8M13 123.4l.5-52.1m41.9-23.6L13.1 72.2m108 61.1 12.4-7"/></g><g><circle cx="16.7" cy="196.5" r="8.5" class="st14"/><circle cx="118.7" cy="11.1" r="8.5" class="st14"/><circle cx="137.9" cy="123.4" r="8.5" class="st14"/><circle cx="13" cy="122.6" r="4.8" class="st14"/><circle cx="54.4" cy="47.3" r="5.5" class="st14"/><circle cx="226.2" cy="192.5" r="8.9" class="st14"/><circle cx="224" cy="126.7" r="5.2" class="st14"/><circle cx="200.3" cy="86.1" r="5.2" class="st14"/><circle cx="157.1" cy="232" r="6.3" class="st14"/><circle cx="76.9" cy="229.4" r="6.7" class="st14"/><circle cx="172.3" cy="41" r="7.4" class="st14"/></g><g><path d="M314.9 177.3c-8-4.6-14.5-11.5-18.8-19.6-4.6-8.4-6.8-18.2-6.8-29.2 0-11.1 2.3-20.8 6.8-29.2 4.3-8.2 10.9-15 18.9-19.7 17-9.3 37.5-9.3 54.5 0 8 4.6 14.6 11.5 18.9 19.7 4.6 8.4 6.8 18.2 6.8 29.2s-2.3 20.8-6.8 29.2c-4.3 8.2-10.9 15-18.9 19.6-17 9.3-37.6 9.3-54.6 0zm51.3-22.2c5.6-6.8 8.4-15.7 8.4-26.7s-2.8-19.9-8.4-26.7c-5.6-6.8-13.6-10.1-24-10.1s-18.4 3.4-24 10.1c-5.6 6.7-8.4 15.6-8.4 26.7s2.8 20 8.4 26.7c5.6 6.7 13.6 10.1 24 10.1 10.4.1 18.4-3.3 24-10.1zm98.1-45.6c5.2 3.6 9.3 8.6 11.8 14.4 5.3 12.8 5.3 27.1 0 39.9-2.5 5.8-6.6 10.8-11.8 14.4-5.5 3.7-12.1 5.6-18.7 5.4-4 .1-7.9-.4-11.7-1.5-3.3-1-6.5-2.6-9.3-4.7v41.8h-19V105.4h15.3l2 7.1c3.1-2.6 6.5-4.7 10.3-6.2 4-1.5 8.2-2.2 12.4-2.1 6.7-.2 13.2 1.6 18.7 5.3zm-8.4 52c3.2-4.4 4.8-10.2 4.8-17.5 0-7.3-1.6-13.1-4.8-17.5-3-4.3-8-6.8-13.2-6.6-6.3 0-11.1 2.1-14.3 6.4-3.2 4.3-4.8 10.2-4.8 17.7s1.6 13.3 4.8 17.7c3.2 4.3 7.9 6.5 14.3 6.4 5.2.2 10.2-2.3 13.2-6.6zm49 16.7c-6-3.4-10.9-8.4-14.1-14.6-3.2-6.3-4.8-13.3-4.7-20.3-.1-6.8 1.4-13.5 4.5-19.6 2.9-5.8 7.3-10.8 12.9-14.2 6.1-3.7 13-5.5 20.1-5.3 7.2 0 13.2 1.5 18.2 4.4 4.8 2.8 8.7 7 11.2 12 2.6 5.3 3.8 11 3.8 16.9 0 3.5-.5 7-1.2 10.4H506c1 6.8 3.7 11.8 8 15.1 4.4 3.4 9.9 5.1 15.5 5 8.1.1 16.1-2.1 23-6.3l.9 16.1A47.4 47.4 0 0 1 542 182c-4.6 1.1-9.4 1.7-14.2 1.6-9 .1-16.6-1.8-22.9-5.4zm32.5-43.2a17 17 0 0 0-3.4-10.6c-2.2-3.1-5.8-4.6-10.4-4.6-4.2-.2-8.3 1.3-11.4 4.1-3 3-5 6.9-5.8 11h31zm90.1-21.3c4.9 6.3 7.4 14.9 7.4 25.6v42.9h-19v-41.3c0-7.2-1.2-12.5-3.6-15.9-2.4-3.4-6.3-5.1-11.6-5.1-5.6-.1-10.9 2.3-14.4 6.6v55.8h-19.1v-76.8H585l.3 5.4c6-4.3 13.2-6.6 20.5-6.6 9.6-.1 16.8 3 21.7 9.4z" class="st1"/><path d="M650.4 103.6H662l39 59.2v-59.2h10.8v79.1h-9.2l-41.5-62.5v62.5h-10.7v-79.1zm79.5 0h48.2v9.7h-37.5v23.2h29.9v9.7h-29.8V173h38.5v9.7H730v-79.1zm69.9 71.5c-5.5-6.1-8.2-14.8-8.2-25.9v-45.5h10.7v42.6c0 8.7 1.5 15.6 4.6 20.7 3.1 5.2 8.9 7.7 17.4 7.7 8.5 0 14.3-2.6 17.4-7.7 3.1-5.2 4.6-12 4.6-20.6v-42.6H857v45.5c0 11.1-2.7 19.8-8.2 25.9-5.5 6.1-13.7 9.2-24.6 9.2-10.8-.1-19-3.2-24.4-9.3zm74.5-71.5h25.6c8.6 0 15.3 2 20.1 5.9 4.8 4 7.2 10 7.2 18.1 0 10.5-4.6 18-13.8 22.3l17.7 32.8H918l-16-30.8h-16.5v30.8h-11.3v-79.1zm25.5 38.7c5.3 0 9.3-1.3 12.1-3.8 2.8-2.6 4.2-6.1 4.2-10.7s-1.4-8.2-4.1-10.7c-2.7-2.5-6.8-3.8-12.1-3.8h-14.2v29h14.1zm56.9 36.9c-5.9-3.4-10.7-8.4-13.8-14.4-3.4-6.7-5.1-14.1-5-21.6a44 44 0 0 1 5-21.6c3.1-6 7.9-11 13.8-14.4 12.6-6.8 27.7-6.8 40.3 0 5.9 3.4 10.7 8.4 13.8 14.4 3.4 6.7 5.1 14.1 5 21.6a44 44 0 0 1-5 21.6c-3.1 6-7.9 11-13.8 14.4a42.91 42.91 0 0 1-40.3 0zm35.2-9.3c4.1-2.7 7.4-6.5 9.3-11 4.1-10.1 4.1-21.4 0-31.5-2-4.5-5.2-8.3-9.3-11-9.3-5.3-20.7-5.3-30.1 0-4.1 2.6-7.4 6.5-9.3 11a41.87 41.87 0 0 0 0 31.5c2 4.5 5.2 8.3 9.3 11 9.3 5.3 20.8 5.3 30.1 0z" class="st14"/></g></g></g></g></svg>