<svg xmlns="http://www.w3.org/2000/svg" xml:space="preserve" viewBox="0 0 1140 325.2"><path fill="#edb11d" d="M196.1 7.6c8.2.6 21.3 1.2 34.3 2.5 7.9.8 15.7 2.3 23.5 3.7 6.2 1.2 10 6.7 6.7 13.6-1.6 3.4-5.4 4.9-10.3 4.1-4.2-.6-8.5-1.4-12.7-2.1-3.9-.6-7.8-1.4-11.7-1.8-15.4-1.4-30.8-2.9-46.2-1.9-11.4.7-22.7 1.7-34 3.4a208.3 208.3 0 0 0-33.2 7.9c-20.1 6.6-38.6 16.2-54.9 30C44.2 78.5 33 91.4 25.5 107.3c-4.4 9.2-7.1 18.9-7.3 29.1-.4 15.5 4.9 29.1 14.6 41.2 7.7 9.7 17.4 16.7 28.6 21.7 14.5 6.4 29.1 6.8 43.8.5 11.1-4.7 20.9-11.5 29.9-19.3 6.8-5.8 13.4-11.9 20-18 4.4-4.1 3.6-3.6 1.4-7.8-5.6-11.1-4.6-21.8 2.5-31.8 9.3-13.2 27.1-16.2 40.7-7.9 18.2 11.2 20.2 39.4-.8 52.1-6.5 3.9-13.9 5.3-21.5 3.4-2.4-.6-4.4-.3-6.2 1.7-2.4 2.5-5.1 4.7-7.6 7.2-11.4 10.9-23.2 21.3-36.7 29.6-8.9 5.5-18.4 9.9-28.7 11.9-9.4 1.8-19 2.1-28.6-.2-28.3-6.9-48.9-23.5-61.8-49.4a72 72 0 0 1-7.3-39C1.8 114.5 8.1 98.5 18 83.9c12.7-18.7 29.1-33.4 48.2-45.2a183 183 0 0 1 42.3-19.1c13.2-4.1 26.7-7.1 40.5-9 14.1-2 28.2-2.8 47.1-3zm5.6 133.3c.4-9.7-8.2-18.3-18.1-18.6-8.7-.2-18.9 7.5-18.6 18.6.3 10.5 8 18 18.5 18.2 10 .3 18.7-9.1 18.2-18.2z"/><path fill="#cc2027" d="M297.5 256.1c6.2.8 12.4 1.5 18.6 2.3 5.4.8 10.7 1.5 16 2.8 6 1.4 12 3.1 17.9 5.3 4 1.5 6.5 4.7 7.8 9.1 1.1 3.7-.1 6.8-1.3 10-1.5 4.2-4.1 7.9-7.2 11.1-5.9 6.1-11.8 12.1-18.9 16.9-7.7 5.1-16.3 7.8-25.2 9.3-5.3.9-10.9 1.1-16.3 1.1-16.4-.2-29.4-7.4-39.4-20.3-2.7-3.5-5.1-7.3-7.5-11-.8-1.3-1.3-3.1-1.4-4.6-.4-5 1.8-8.4 5.9-9.7 4-1.3 8.6.7 11 4.8 1.4 2.3 2.6 4.6 4.1 6.7 5.3 7.7 12.1 13.8 21.5 15.4 5.5.9 11.2.9 16.8.5 4-.3 7.9-2.2 11.8-3.2 4.1-1 7.7-3 10.9-5.6 4.9-4.1 10.3-7.9 13.9-13.4 1.2-1.7 1-2.8-.9-3.2-3.5-.8-7-1.5-10.6-2.2-5.3-1-10.7-1.9-16-2.7-3.2-.5-6.5-1-9.8-1.3-8.4-.8-16.8-1.5-25.1-2.2-4.6-.4-9.2-.8-13.8-.9-6-.2-11.8 1.2-17.7 1.7-10.7.9-21.1 3.6-31.7 4.6-12.2 1.1-24.4 2.3-36.6 1.6-11.3-.7-22.1-3.4-31.6-10a35.7 35.7 0 0 1-15.6-25.4c-1.3-9.8 2.6-16.6 12.8-21.8 11.6-5.9 23.3-11.6 34.9-17.6 14.5-7.5 28.9-15.1 43.3-22.7 1-.5 1.9-1.3 3-1.8 1.6-.7 1.5-1.7 1.2-3.2-3.4-16.8 5.8-31.5 21.1-35.5 16.8-4.3 32.8 2.7 38.2 22.2 4 14.5-5.3 30.6-18.5 35.2-9.8 3.4-19.1 2.8-27.9-2.9-2-1.3-3.5-.9-5.4 0-23.6 12.4-47.3 24.7-71 37l-12.3 6.3c-1.4.7-1.8 1.5-1.5 3.1 1.8 9.1 8.3 13.4 16.3 16.2 7.2 2.5 14.8 3.2 22.4 3.1 8.4-.1 16.8-.3 25.1-1.9 8.7-1.6 17.5-2.9 26.3-4 10.3-1.3 20.6-2.8 31.1-2.1 6.2.4 12.4 1.2 18.7 1.7 3.1.3 6.3.3 9.5.4 1.1.3 2.1.5 3.1.8zm-46.3-67.8c11 .9 19.2-9.2 19.5-17.5.4-10.6-9.8-18.6-17.6-18.8-11.5-.3-19.2 9.1-19.4 18.1-.4 8.4 8 18.9 17.5 18.2z"/><path fill="#0c4c8a" d="M397.3 183.8c0-3.3.1-6.7 0-10-.4-11.8-2.5-23.4-5.6-34.8-2.4-8.5-5.4-16.9-9.5-24.7-6.6-12.6-14.6-24.2-24.7-34.4-9.4-9.4-19.2-18.1-30.5-25.2-13.2-8.4-27-15.4-41.9-20.3-1.5-.5-2.1-.8-3 .8-5.7 10.9-11.6 21.8-17.4 32.6-.9 1.6-.8 2.6.6 4.2 5.5 6.2 8.3 13.7 8.2 22-.1 5.5-1.8 10.6-4.9 15.2-4.1 6-9.4 10.7-16.5 12.8-9.9 2.9-19.1 1.4-27.4-5-9.4-7.3-13.5-17.1-11.8-28.6 1.6-11.2 8-19.6 19-23.9 3.9-1.5 7.9-2.5 12-2 2.3.3 3.6-.6 4.6-2.6 6.1-11.8 12.4-23.6 18.6-35.3 1.8-3.3 3.6-6.6 5.4-10 .8-1.5 1.5-1.9 3.4-1.5 16.4 3.2 31.4 10.1 46.1 17.7 12.5 6.4 24.1 14.1 34.6 23.5 6 5.4 12.2 10.8 17.6 16.8 13 14.4 23 30.7 30 48.8a168 168 0 0 1 8.6 30c1.4 7.6 2.5 15.2 2.4 23-.1 3.8.7 7.5.7 11.3 0 2.8-.8 5.5-.7 8.3.2 8.4-.7 16.8-2.3 25-1.6 8.4-5.6 16-10.8 22.9-7.7 10.5-18.3 16.6-30.7 19-9.1 1.8-18.6 2.5-28 .6-5.5-1.1-11.2-1.4-16.8-2.2-4.9-.7-9.7-1.2-14.6-2.2-5.3-1.1-10.7-1.9-16.1-1.8-1.6 0-3.3-.1-4.8-.7-4.3-1.8-5.7-5.3-4.8-10.7.6-3.3 4.2-6.2 8.3-6.5 6.1-.4 12.2.1 18.2 1.2 5.5.9 10.9 1.9 16.4 2.7 6.1 1 12.3 2.2 18.4 2.7 11.6 1 23 .5 33.2-6.6 7.7-5.4 11.7-13.2 14.2-21.9.8-2.8.9-5.8 1.1-8.8l1.5-21.7c0 .3-.1.3-.3.3zM261.6 92.6c.1-9.6-8.4-18-18.2-18.2-10.2-.2-18.9 8.6-18.7 18.1.2 9.8 7.3 18.6 18.4 18.6 11.1.1 18.1-8.7 18.5-18.5zm535.8 4.8c0-18.3.1-36.6.1-54.8 0-2.8-.1-2.8-3.1-2.9-6.1-.2-6.1-.2-3.4-5.8 5.2-11 10.4-21.9 15.6-32.9.2-.4.5-.9.8-1 .3 0 .8.4 1 .7 5.2 8.6 10.3 17.2 15.4 25.8 2.3 3.8 4.4 7.7 6.7 11.5.7 1.2.7 1.7-.9 1.7-2-.1-4 .1-6 0-1.8-.1-2.4.7-2.2 2.4.1 1.2 0 2.3 0 3.5v93.7c.1 1.4-.4 2.1-2 2.1-5.7 0-11.3.1-17-.1-1.1 0-2.5-.9-3.3-1.8-4.7-6-9.1-12.1-13.7-18.1-7.2-9.4-14.5-18.8-21.6-28.2-4.6-6-9-12.1-13.5-18.2-.4-.5-1-.7-1.5-1.1-.1.5-.3 1-.3 1.4v44.4c0 1.8.3 2.9 2.5 2.7 1.1-.1 2.3 0 3.5 0 1.6-.1 2 .3 1.2 1.9-3.1 6.3-6 12.7-9 19-2.5 5.3-4.9 10.7-7.5 16-1.3 2.7-1.9 2.7-3.5.2l-15-24.9c-1.9-3.2-3.9-6.5-5.8-9.7-1.2-2.1-1-2.4 1.2-2.5h.5l7.8-.6.3-7.4V38.1c0-1.3-.1-2.7.1-4 .1-.6 1-1.4 1.5-1.4 6.5-.1 13-.1 19.5 0 .7 0 1.6.8 2.2 1.5 5.2 6.6 10.4 13.2 15.5 19.9 8 10.5 15.8 21 23.8 31.5 3.1 4 6.3 7.9 9.4 11.9.2.2.4.5.6.7-.1-.3 0-.5.1-.8zm49.1-10.9V37.6c0-1.2-.2-2.4.1-3.5.1-.6.9-1.3 1.5-1.4.9-.2 2-.1 3-.1 13.8 0 27.6-.2 41.4.1 8.1.1 15.9 1.8 23.3 5.2 14.9 6.8 24.9 18 29.3 33.9 2 7.1 2.6 14.3 1.4 21.9-.9 5.6-1.8 11-4.3 16-1.6 3.4-3.4 6.8-5.7 9.7-7.6 9.6-17.3 16.3-29 19.6-5 1.4-10.3 2.1-15.5 2.2-14 .3-27.9.1-41.9.1-4.2 0-3.6-.2-3.6-4V86.5zm24.8.4v29.9c0 1.4 0 2.7 2 2.6 7.9-.5 15.8.6 23.8-.8 8-1.5 14.2-5.4 18.8-11.7 4.7-6.4 6.4-14.1 6.1-21.9-.2-5.5-1.8-11-4.8-15.8-5.4-8.8-13.4-13.5-23.4-14.5-6.4-.6-13-.2-19.4-.1-3 0-3 .1-3.1 3v29.3zm-259.5 54.3c-7.8 0-15.6 0-23.4.1-2.7.1-4.1-1-5.6-3.2-6.4-9.8-13.1-19.3-19.4-29.1-1.3-1.9-2.4-2.8-4.7-2.7-4.3.2-8.6.2-13 0-2.3-.1-2.8.8-2.8 2.9.1 8.8 0 17.6 0 26.4v3.5c.1 1.4-.4 2.1-2 2.1H521c-1.4 0-2.2-.5-2.1-2 .1-1 0-2 0-3V37.5c0-5.8-.8-5 5-5 16.3 0 32.6-.1 48.9.1 7.3.1 14.1 2.1 20.6 5.7 7.6 4.3 12.4 10.4 14.8 18.8 2.8 10.1 2.3 19.8-2.4 29.2-2.9 5.7-7.4 10-13.1 13.1-1.3.7-2.6 1.4-4 2-1.4.7-1.9 1.2-.7 2.8 6.4 9.2 12.6 18.4 18.9 27.7 1.7 2.4 3.3 4.9 4.9 7.4.1.7 0 1.3 0 1.9zm-68.7-71.4c0 4.5.1 9 0 13.5 0 1.8.7 2.3 2.3 2.3 7.3-.1 14.6.2 21.9-.1 3-.1 6.2-.8 9-2 2.3-.9 4.8-2.5 6.3-4.5 3.6-4.6 4.3-16.1-2.7-21-3-2.1-6.2-3.1-9.6-3.2-8.3-.3-16.6-.1-24.9-.1-1.7 0-2.4.5-2.3 2.3v12.8zm461.3 72.5c-10.8.9-20.9-2.2-30.4-6.8-5-2.4-9.3-6.1-13.9-9.3-.4-.3-.6-1.5-.4-1.9 4.1-5.1 8.3-10.2 12.6-15.3.3-.3 1.5-.3 2 .1 2.2 1.4 4.3 3 6.5 4.5 8.2 5.5 17.1 8.3 26.9 7.7 2.4-.1 4.9-.6 7.1-1.5 3.8-1.5 6-4.3 6.2-8.7.1-4.6-2.6-7-6.2-8.6a94.3 94.3 0 0 0-15.8-5.2c-8.4-2-16.8-4.4-24.1-9.3-6.3-4.3-9.9-9.9-11.2-17.7-1.2-7.8-.2-15 3.3-21.9 3.3-6.5 8.9-11 15.5-13.9 5.2-2.3 10.6-3.3 16.3-3.2 6.1.2 12.3-.2 18.2 1.3 6.7 1.7 13.1 4 18.9 7.9.7.5 1.3 1 2 1.5 3.5 2.5 3.7 2.8 1.5 6.1-2.6 4-5.3 7.9-8 11.9-1.9 2.8-2.4 2.7-5.6 1-4.3-2.3-8.7-4.6-13.2-6.6-4.9-2.2-10.2-2.2-15.5-1.9-.9.1-1.9.5-2.8.8-4 1.4-7.3 3.8-7.3 8.3 0 4.8 3.1 8 7.4 9.5 6.6 2.3 13.3 4.3 20.1 6.2 7 2 13.6 4.3 19.6 8.6 7 5.1 10.2 11.8 10.6 20.1.3 5.6 0 11.1-2.4 16.4-3.7 8.1-9.7 13.6-17.8 16.8-6.3 2.7-13.1 3.8-20.1 3.1zm-332.9-34h-21.4c-3.6 0-3.4.1-2.1 3.6 2.1 5.6 6.6 8.4 11.4 11.1.1.1.3.2.4.2 8.2.4 16.5 1.2 23.5-4.9 3.4-3 3.6-2.8 7 0 2.8 2.3 5.5 4.7 8.2 7.2 2 1.9 1.9 2.4 0 4.5-6 6.5-13.4 10.5-22 12.2-11.5 2.3-22.5.6-32.8-5-8.1-4.4-13.6-11.1-17.1-19.6-2.5-6-3.8-12.3-3.5-18.7.8-15 6.3-27.7 19.3-36.4 5-3.4 10.7-5.1 16.5-5.8 7-.8 14-.5 20.9 2.1 8.1 3.1 14 8.6 18.4 15.7 5.9 9.5 7.1 20.3 6.6 31.3-.1 1.7-1.3 1.6-2.4 1.6l-30.7 1.2c-.2 0-.2-.1-.2-.3zm5.4-15.4v.5h2.5c2.2.1 2-.7 1.7-2.6-.6-3.2-2-5.9-3.5-8.6-2.7-4.6-11.6-7.8-16.6-6.3-7.3 2.1-11.8 6.6-13.5 14.1-.5 2.2-.3 2.6 1.7 2.6l27.7.3zM456.3 32.6h41.4c2.9 0 3.4-.5 3.4 3.2-.1 5.2 0 10.3 0 15.5 0 2.9.4 3.4-3.2 3.4-8.1-.1-16.3 0-24.4 0H470c-1.3 0-1.8.6-1.8 1.8v82.8c.1 1.4-.4 2.2-1.9 2.2h-20c-1.4 0-2.2-.4-2.1-2V59.2c0-5 .5-4.4-4.6-4.4h-24.4c-3.9 0-3.9.3-3.9-3.7V36.6c0-3.9-.4-3.9 3.7-3.9h26.4c5-.1 10-.1 14.9-.1z"/><path fill="#fefefe" d="M471.2 277.4v26.4c0 3.8-.2 3.3-3.2 3.3-3.7 0-3.7 0-4.7-3.5-2.7-9.2-5.3-18.4-8-27.6-.2-.6-.5-1.2-.7-1.8-.1.6-.4 1.2-.4 1.9V304c-.1 3.2-.1 3.2-3.3 3.2-3.5 0-3.5 0-3.5-3.5v-51.8c0-1.2.3-3.3.9-3.4 1.7-.4 3.6-.3 5.4 0 .6.1 1 1.6 1.2 2.5 2.1 8 4.2 16 6.4 24 .7 2.6 1.3 5.1 2 7.7.1.4.4.8.6 1.2.1-.5.3-1 .4-1.4 0-7.5.1-14.9.1-22.4 0-3.2.1-6.3 0-9.5-.1-1.8.7-2.4 2.3-2.3h1.5c3 0 3 0 3 2.9v26.2zm-6.6 7.7v.7c.4-.3.4-.3 0-.7zm134.7-.3v-18.4c0-1 .5-2.8.9-2.9 1.5-.2 3.7-1.4 4.4 1.4.3 1.3.7 1 1.6.4 5.8-4.1 9-4.1 14.6.1 1.3.9 1.7.2 2.4-.4 3.2-2.7 6.7-3.4 10.7-2.1 3 1 4.8 2.9 5 6.1.2 1.8.4 3.6.4 5.5 0 9.6.1 19.3 0 28.9 0 1.2-.3 3.2-1 3.4-1.4.6-3.3.4-4.9.2-.3 0-.8-1.3-.8-2-.1-3.5 0-7 0-10.5 0-7-.1-14 0-20.9.1-3.9-2.6-6.2-6-5.2-2.2.6-3.7 2.2-4 4.6-.1 1.2-.1 2.3-.1 3.5v27.4c0 3.3-.1 3.3-3.2 3.3-3.7 0-3.6.4-3.6-3.4v-27.4c0-1.2.1-2.3 0-3.5-.2-2.9-1.3-4.3-3.5-4.7-2.6-.4-5 1-5.8 3.6-.4 1.4-.4 2.9-.4 4.4 0 9.5 0 18.9-.1 28.4 0 .9-.5 2.4-.9 2.4-1.8.1-3.6 0-5.3-.4-.4-.1-.5-1.8-.5-2.8.1-6.4.1-12.7.1-19zm189.2 6v-5.5c0-.8-.1-1.8.3-2.4 1.2-2.1 3.7-4.3 3.5-6.1-.2-2-3.1-3.7-3.1-6.4 0-5.1-.2-10.3.3-15.4.5-4.9 5.1-7.8 10.6-7.7 5.3.1 9.5 2.9 10.2 7.7.6 4.1.5 8.3.7 12.4.1 1.3-.7 1.7-1.8 1.7-1.2 0-2.4.2-3.5-.1-.6-.1-1.3-.9-1.4-1.5-.1-2.6 0-5.3-.1-8-.1-3.8-1.8-6.3-4.3-6.3-2.6 0-4.3 2.4-4.4 6.2-.1 2.8-.1 5.6 0 8.5.2 4.3 1.8 5.9 6.2 6 3.7.1 7.3 0 11 0 1.6 0 3.1-.1 2.8 2.2-.2 1.6.9 4.1-2.3 3.7-2.3-.2-2.8.9-2.7 2.9.1 4.1 0 8.3 0 12.5 0 2.8.5 5.2 3.8 6.2 1.3.4 2.1 4.1 1.2 5.1-.5.5-1.6.7-2.2.5-2-.6-3.9-2-5.8-1.9-1.8.1-3.3 2.2-5.2 2.6-5.6 1.3-13.1-1.3-13.7-9.9-.2-2.3 0-4.7-.1-7 .1 0 0 0 0 0zm16-1.5c0-2.5.1-5 0-7.4 0-.6-.2-1.5-.6-1.8-2.4-1.8-8.2.5-8.4 3.6-.3 4.6-.2 9.3 0 13.9.1 2.6 2.3 4.2 4.7 4.3 2.3 0 4.1-1.7 4.2-4.6.2-2.7.1-5.4.1-8zm30.8-11.8v-26.9c0-1.8.3-2.7 2.4-2.6 3.6.2 7.3-.1 10.9.1 6.1.3 9.6 3.7 9.7 9.7.2 13.3.2 26.5 0 39.8-.1 6-3.3 9.1-9.3 9.4-3.6.2-7.3 0-10.9.1-2.1.1-2.9-.6-2.8-2.8.1-6.1 0-12.3 0-18.4v-8.4zm6.7.2c0 6.8.1 13.6 0 20.4 0 2 .4 2.9 2.7 2.9 5.3 0 6.8-1.2 6.8-6.6v-33.8c0-5.1-1.5-6.5-6.5-6.4-2.9.1-2.9.1-3 3.1v20.4zM762.6 302c-2.2 1.4-4.5 2.6-7.4 2.3-4.2-.5-6.7-2.5-7.6-6.6-.2-.8-.4-1.6-.4-2.5.1-8.4-.1-16.9.3-25.3.2-4.5 2.9-6.8 7.2-7.6 2.2-.4 4.3.1 6.1 1.4 1.4 1 2.5 2.4 3.8 0 .2-.3.8-.4 1.3-.5 3.3-.6 4.1.1 4.1 3.4v40.8c0 1-.1 2-.2 3-1.1 8.1-5.6 11.5-13.7 10.4-5.5-.7-8.9-4.7-9-10.1 0-1.5.6-2 2-2.1 3.2-.3 3.7 0 4.9 3 1.1 3 2.4 4 5 3.7 2.2-.2 3.8-1.6 4.1-4.3.3-2.9.1-5.9.1-8.9v-.8c-.2.2-.4.4-.6.7zm-8.5-16.5h-.3c0 2.8-.2 5.6.1 8.4.2 2.6 1.8 4.1 4 4.3 2.4.3 3.9-.7 4.9-3.3.4-1.1.6-2.2.6-3.4-.1-6.1-.2-12.2-.4-18.3-.1-3.4-1.9-5.3-4.6-5.3-2.5.1-4.1 1.9-4.2 5.1-.2 4.3-.1 8.4-.1 12.5zm-57.5 2.3c0 6.8.1 13.6-.1 20.4 0 2.3-.3 4.7-1.1 6.8-1.7 4.6-7.5 6.8-13.6 5.7-4.8-.9-8-4.8-8.2-9.8-.1-1.8.6-2.3 2.3-2.3 3.5-.1 3.5-.2 4.8 3.4 1 2.7 2.2 3.6 4.7 3.4 2.1-.2 3.8-1.3 4.1-3.7.4-3.1.2-6.3.2-9.4 0-1.2-.6-.5-1.2-.2-1.2.8-2.5 1.8-3.9 2.1-5.7 1.4-10.6-1.8-10.8-7.8-.3-8.6-.2-17.3-.1-25.9 0-3.2 1.6-5.8 4.6-7.1 3.3-1.4 6.8-1.6 9.8 1 1 .9 2 3.3 3-.2.2-.6 2.9-.7 4.4-.6.3 0 .9 1.6.9 2.4.2 7.2.2 14.5.2 21.8zm-6.9-4.4v-9.2c0-2.3-.6-4.7-2.9-5.7-1.5-.7-3.4-.6-4.7.6-1.7 1.5-1.8 3.8-1.8 5.9v16.1c0 1.1-.2 2.5.1 3.5.3.9 1.1 1.7 1.7 2.4 1.3 1.3 3.4 2 5 .8 1.8-1.3 2.3-4.1 2.5-6.2.3-2.7.1-5.4.1-8.2zm105.2-103v8.5c-.1 3.6-.8 7-4.4 8.9-2 1-1.2 2.5-.8 3.9 1.3 4.8 2.7 9.5 4.1 14.3.1.5.5.9.5 1.4.1 1.2.3 3.4 0 3.6-1.5.5-3.3.5-4.8.3-.6-.1-1.1-1.5-1.4-2.4-1.5-5.1-3-10.2-4.4-15.3-.2-.6-.3-1.3-.5-1.9-.4-1.2-1.3-2.2-2.6-1.6-.7.3-1.3 1.4-1.3 2.2-.1 3.3 0 6.6-.1 10 0 2-.1 4-.2 6-.2 3.2-.3 3.2-3.4 3.2s-3.1 0-3.2-3.4v-52.4c0-3.3-.2-3.3 3.2-3.3 2.8 0 5.7-.1 8.5 0 8.2.2 11 4.2 10.8 10.6-.1 2.4 0 4.9 0 7.4zm-15.7 0h-.2c0 3.5.1 6.9 0 10.4-.1 1.8.6 2.4 2.3 2.3 1.2-.1 2.3.1 3.5-.1 2.5-.4 3.9-1.7 3.9-4.3.2-5.5.2-10.9 0-16.4-.1-2.6-1.4-3.8-4.1-4-1.1-.1-2.3 0-3.5 0-1.6-.1-1.9.8-1.9 2.2v9.9zM974.1 291c1.3-5.7-2-9.6-7.3-12.5-1.4-.8-2.9-1.7-4.1-2.8-1.4-1.3-3-2.8-3.7-4.5-2.6-5.9-2.4-12-.5-17.9 1-3 3.6-4.6 6.7-5.4 8.5-2.3 15 2 15.7 10.7.2 2.3-.1 4.7.1 7 .2 2.2-1 2.4-2.7 2.4-3.9 0-3.9.1-4-3.6 0-2 .1-4-.1-6-.3-3.1-2.4-5.1-5.1-5.1-2.3 0-4.7 2.1-4.8 4.8-.3 7.9-1.1 9.9 6.4 14.7 1.5 1 3.1 1.9 4.5 3 3.8 2.9 5.8 6.8 5.7 11.6 0 3 .1 6 0 9-.3 7.1-4.4 11.4-11 11.6-7 .3-11.7-3.7-12.5-10.8-.3-2.3-.1-4.6-.1-7 0-3.9 0-3.9 3.7-3.8 3 0 3.1 0 3.1 2.9 0 2.3-.1 4.7 0 7 .2 3.3 1.9 5 4.9 5.1 2.9 0 4.7-1.7 5-5 .3-1.6.1-3.1.1-5.4zM963 192.2c0-9.1 0-18.3.1-27.4 0-.8.7-2.2 1.2-2.2 1.7-.1 3.5.1 5.3.5.2.1.3 1.5.3 2.3v12c0 2.1.2 2 2.3 1.2 2-.8 4.1-1.6 6.1-1.6 4.3-.1 7.1 2.5 7.8 6.8.2 1 .2 2 .2 3v31.9c0 1 .6 2.6-1.1 2.8-1.6.2-3.3 0-4.8-.4-.4-.1-.5-1.8-.5-2.7l-.3-27.9c0-1.3 0-2.7-.2-4-.4-2.4-1.8-3.8-3.8-4-2.3-.2-4.8 1.3-5.4 3.5-.4 1.6-.4 3.3-.4 4.9l-.3 27.9c0 1.1.4 2.6-1.3 2.7-1.6.1-3.2-.1-4.7-.5-.4-.1-.4-1.8-.4-2.8-.1-8.7-.1-17.3-.1-26zm-349.7 10v15.9c0 1-.4 2.9-.9 2.9-1.3.3-3.5.3-4.1-.5-.9-1.2-1.1-.9-2.1-.3-1 .6-2 1.2-3.1 1.5-7 2.1-12.2-1.4-13-8.6 0-.3 0-.7-.1-1-.5-10.3.6-12.1 10.2-16.1.6-.3 1.2-.5 1.8-.8 4.4-2.1 6.2-6.8 4.4-11.1-.8-1.8-2.3-2.3-4.1-2.2-1.8.1-3.4.6-3.6 2.7-.2 1.5-.2 3-.2 4.5-.1 3-.1 3-3 3-3.7.1-3.7.1-3.8-3.8-.1-4.1.3-8 4.5-10.2 4.5-2.4 9-2.1 13.3.2 3.4 1.8 3.9 5.2 3.9 8.5.1 5.1 0 10.3 0 15.4h-.1zm-6.4 4.2c0-.5.1-1 0-1.5-.2-1.9-.3-3.9-.5-5.8-2 .8-4 1.5-5.9 2.5-2.6 1.3-4 3.4-3.6 6.5.1 1.1 0 2.3 0 3.5.2 3.2 1.6 4.6 4.5 4.8 3.3.1 5.1-1.2 5.4-4.4.2-1.9.1-3.8.1-5.6zm280 81.6v15.4c0 3.7-2.3 5.1-5.3 3.1-.8-.5-.8-1.5-1.9-.5-.7.6-1.7 1-2.6 1.3-7.1 2.6-13.1-.8-13.4-8.3-.4-8.6-2-12.7 9.9-17.2.6-.2 1.2-.5 1.8-.8 4.5-2.1 6.3-6.6 4.5-11.1-.7-1.8-2.3-2.4-4-2.3-1.7.1-3.4.5-3.7 2.6-.2 1.3-.1 2.6-.3 4-.1 1.1-.1 3.1-.5 3.2-1.7.4-3.6.4-5.4.3-.3 0-.8-1-.8-1.6-.1-1.8-.1-3.7 0-5.5.2-3.7 2.3-6.1 5.6-7.5 3.9-1.6 7.8-1.2 11.6.6 3.1 1.4 4.1 4.2 4.2 7.3.1 5.6 0 11.3 0 16.9.2.1.3.1.3.1zm-6.6 4.2c0-.5.1-1 0-1.5-.2-1.9-.3-3.9-.5-5.8-2 .8-4 1.5-5.9 2.5-2.6 1.3-4 3.4-3.6 6.5.1 1.1 0 2.3 0 3.5.2 3.2 1.6 4.6 4.5 4.8 3.3.1 5.1-1.2 5.4-4.4.3-1.9.1-3.8.1-5.6zm-212.9-4.3v15.9c0 3.3-2.6 4.8-5.1 2.6-1.2-1-1.4-.8-2.4-.2-1.1.7-2.4 1.3-3.6 1.5-7.1 1.5-11.9-1.8-12.1-9.2-.3-8.4-2.1-12.2 10.3-16.9.8-.3 1.5-.6 2.3-1 3.6-1.9 5.4-7.5 3.5-11.1-.9-1.7-2.5-2-4.3-1.9-1.9.1-3.2 1-3.3 3-.1 1.5-.3 3-.1 4.5.2 2.3-.9 2.7-2.9 2.7-3.8 0-3.9.1-3.9-3.7 0-1.2 0-2.3.1-3.5.2-3.7 2.3-6.2 5.6-7.5 3.9-1.6 7.8-1.2 11.6.5 3.1 1.4 4.2 4.1 4.2 7.3.1 5.6 0 11.3 0 16.9-.1.1 0 .1.1.1zm-6.6 4.3c0-.5.1-1 0-1.5-.2-1.9-.3-3.9-.5-5.8-1.8.7-3.7 1.4-5.5 2.2-2.8 1.3-4.4 3.4-4 6.7.1 1.1 0 2.3 0 3.5.2 3.2 1.6 4.6 4.5 4.7 3.4.1 5.1-1.2 5.4-4.5.2-1.7.1-3.5.1-5.3zm-148.7-90c0 5.5-.1 10.9 0 16.4.1 3.1-.9 3.4-3.2 2.5-2.8-1.1-4.7-.3-7.1.6-1.9.7-4.3.5-6.4.2-3.6-.5-5.9-3-6.2-6.7-.3-3.5-.2-7-.1-10.4.1-2.9 2.1-4.8 4.4-6.2 2.1-1.2 4.5-2.1 6.7-3.1 4.6-2.1 6.6-6.8 4.7-11.4-.7-1.9-2.4-2.2-4.1-2.1-1.8.1-3.3.8-3.6 2.8-.2 1.6-.3 3.3-.2 5 .1 2-.7 2.7-2.6 2.5-1-.1-2 .1-3-.1-.5-.1-1.2-.8-1.2-1.2-.3-4.5-.5-9.1 3.7-12.2 3.5-2.7 10.3-2.9 14.1-.4 2.8 1.8 3.9 4.4 3.9 7.6.2 5.2.2 10.7.2 16.2zm-6.8 4.1h.2v-2.5c0-5.4.5-5.8-5.2-2.8-2.1 1.1-4.3 2.1-4.5 4.8-.2 2.3-.2 4.6 0 6.9.3 2.6 1.6 3.5 4.4 3.6 3.1.1 4.6-.9 5-3.6.3-2.1.1-4.2.1-6.4zm232.3-3.6v15.4c0 3.2-1 4.3-3.7 3-2.3-1.1-3.7-.3-5.6.2-2.5.7-5.3.8-7.8.4-3.4-.6-5.5-3.1-5.7-6.6-.3-3.5-.2-7-.1-10.4.1-2.9 2.1-4.8 4.5-6.2 2.1-1.2 4.5-2.1 6.7-3.1 4.6-2.1 6.5-6.8 4.7-11.4-.8-1.9-2.4-2.2-4.1-2.1-1.8.1-3.3.8-3.6 2.8-.2 1.6-.3 3.3-.2 5 .1 2-.7 2.7-2.6 2.4-1-.1-2 .1-3-.1-.5-.1-1.1-.8-1.2-1.2-.3-4.5-.5-9.1 3.7-12.2 3.5-2.6 10.4-2.8 14.2-.4 2.8 1.8 3.8 4.4 3.8 7.6v16.9zm-6.6 3.8v-5.9c0-1.3-.7-1.6-1.9-1.2-6.5 2.2-8 4.3-7.8 11.2v1.5c.4 3.2 1.6 4.3 4.9 4.3 3.2 0 4.5-1.1 4.8-4.4.1-1.8 0-3.7 0-5.5zm207.1 81.7v16c0 2.9-.9 4-3.5 2.8-2.7-1.2-4.5 0-6.7.5s-4.7.6-6.9.2a6.6 6.6 0 0 1-5.6-6.1c-.4-3.6-.3-7.3-.2-10.9.1-2.9 2-4.9 4.4-6.2 2.3-1.3 4.8-2.2 7.2-3.3 4.2-2 6.1-7 4.2-11.2-.8-1.8-2.4-2.2-4.2-2-1.8.1-3.3.8-3.5 2.8-.2 1.6-.2 3.3-.1 5 .1 1.6-.5 2.5-2.3 2.4-.8-.1-1.7-.1-2.5 0-1.4.1-2.2-.4-2.1-1.9v-2.5c-.2-4.3.9-8 5.1-9.9 4.7-2.2 9.4-1.8 13.7 1.1 2.3 1.6 3 4.3 3 7.1v16.1zm-6.8 4.2c.1 0 .1 0 0 0v-2c-.1-6.7.9-6.6-5.8-3.3-.4.2-.8.5-1.3.8-2 1.2-3 3-2.9 5.4.1 1.5-.1 3 .1 4.5.3 3 1.9 4.4 4.9 4.4 3.2 0 4.7-1.2 5-4.3.2-1.9 0-3.7 0-5.5zM907.4 202v15.9c0 3.4-1.6 4.7-4.4 3-1.8-1-2.4-.4-3.8 0-2.2.6-4.5 1.2-6.8 1.1-4.6-.1-7.4-2.7-7.9-7.3-.3-3.1-.3-6.3-.1-9.4.2-3.2 2.2-5.5 5-7 2.3-1.2 4.8-2.1 7.2-3.3 3.8-1.9 5.6-7.9 3.6-11.5-.9-1.5-2.3-1.7-3.9-1.6-1.6.1-3 .6-3.3 2.4-.3 1.8-.4 3.6-.5 5.4 0 1.6-.4 2.6-2.2 2.4-.8-.1-1.7-.1-2.5 0-1.4.1-2.2-.4-2.1-2v-1c-.2-10 5.8-14.7 15.4-11.9 4.1 1.2 6.1 3.5 6.3 7.8.1 5.7 0 11.3 0 17zm-6.3 4v-5.4c0-1.3-.5-1.7-1.8-1.3-6.8 2.2-8.5 4.7-8.2 11.9v.5c.2 3.3 1.5 4.5 4.5 4.7 3.3.1 5.1-1.2 5.4-4.4.3-2 .1-4 .1-6zm158 79.2v-19.4c0-1.1-.2-2.7 1.5-2.5 1.5.2 3.9-1.5 4.3 1.5.2 1.4.6 1 1.4.5 1.4-.9 2.8-2 4.3-2.3 8.2-1.5 12.2 2.7 12.1 9.6-.1 10.6 0 21.2-.1 31.9 0 1-.4 2.9-.9 2.9-1.7.3-3.6.1-5.3-.2-.4-.1-.5-1.7-.5-2.7v-31.9c-.1-1.8-.6-3.3-2.4-4-2-.9-3.9-.4-5.6 1-1.8 1.5-2.1 3.6-2.1 5.9.1 9.6 0 19.3 0 28.9 0 1.1-.3 2.9-.8 3-1.7.3-3.6.2-5.4-.1-.4-.1-.6-1.7-.6-2.6.1-6.6.1-13 .1-19.5zm-29.1-.4v-11.5c0-4.3 1.5-7.8 5.5-9.9 4.3-2.2 8.7-1.8 12.8.7 2.2 1.4 3.6 3.6 3.7 6.2.3 5.3.4 10.6.6 15.9.1 1.7-1.1 1.7-2.3 1.7-3.7 0-7.3.1-11 0-2-.1-2.6.7-2.5 2.6.1 2.3-.1 4.7.1 7 .2 2.7 1.7 4.2 3.9 4.5 2.3.3 3.6-.7 4.6-3.6.2-.6.4-1.3.4-1.9 0-1.3.7-1.7 1.9-1.7 1.2.1 2.3-.1 3.5.1.4.1 1 .8 1.1 1.3.7 3.7-1.5 8.2-4.8 10.2-7.7 4.6-17-.2-17.4-9.1-.2-4.1-.1-8.3-.1-12.5zm15.5-7.4v-4.9c-.4-2.6-1.8-4.2-4-4.3-2.1-.1-4.1 1.4-4.4 3.9-.3 2.6-.2 5.3-.2 8 0 2.9.1 2.9 3 2.9 6.1.2 6.1.2 5.6-5.6zm-166.2-83.5c-.2 2.6-.3 5.2-.5 7.9-2.6.2-5.2.4-7.8.5-2 .1-4 .1-6 0-1.3 0-1.7.6-1.7 1.8 0 2.5-.1 5 .1 7.5.2 2.9 1.8 4.5 4.2 4.7 2.4.2 3.9-1.1 4.6-4.2.2-.9.3-2.6.7-2.6 1.8-.3 3.6-.2 5.4 0 .3 0 .8 1 .8 1.6-.3 5.6-2.6 9.9-8.6 11.2-6.4 1.3-11.7-1.7-13.3-7.5-.4-1.4-.7-2.9-.7-4.4-.1-7.3-.1-14.6 0-21.9 0-4 1.1-7.6 4.6-10 7.2-4.9 17-.5 18 8.1.3 2.5 0 5 0 7.5.1-.2.2-.2.2-.2zm-15.8-2.6c-.1 6-.1 6 5.9 5.9.5 0 1.1.2 1.5-.1.6-.3 1.4-.9 1.5-1.4.1-3.1.2-6.3-.1-9.4-.2-2.4-2.2-3.9-4.3-4-2.1-.1-3.9 1.4-4.3 4-.4 1.7-.2 3.4-.2 5zm-170.7-11.6c2.2-1.9 4.7-2.9 7.7-2.8 5.8.1 9 3.1 9.1 8.9.1 4.3 0 8.6 0 13v19.9c0 3.1-.1 3.1-3.4 3.1h-1c-2.1.4-2.5-.8-2.5-2.6v-27.9c0-1.3.1-2.7 0-4-.2-3.1-1.1-4.4-3.3-4.8-2.2-.4-4.9.8-5.7 3-.6 1.5-.9 3.2-.9 4.8-.1 9.3 0 18.6-.1 27.9 0 1.1-.2 3-.7 3.1-1.6.4-3.3.2-4.9.1-.3 0-.7-1-.8-1.6-.2-1.1-.3-2.3-.3-3.5v-36.4c0-.8.9-2.3 1.1-2.2 1.7.4 4-1.6 4.9 1.2 0 .1-.1.3-.1.5.1.3.1.7.2 1l.7-.7zm107.9 19.5v-11c0-8.8 6.6-14.5 16.9-10.6 3.8 1.4 5.3 5 5.6 8.8.3 4.6.1 9.3.2 13.9 0 1.7-.9 1.9-2.2 1.9-3.8 0-7.6.1-11.5 0-1.8-.1-2.3.7-2.2 2.3.1 2.3-.1 4.7.1 7 .2 2.9 1.8 4.5 4.2 4.7 2.4.2 3.9-1.1 4.6-4.2.2-.9.3-2.6.7-2.7 1.8-.3 3.6-.2 5.4 0 .3 0 .8 1 .8 1.6-.3 5.5-2.5 9.9-8.6 11.2-6.4 1.3-11.7-1.7-13.3-7.5-.4-1.6-.6-3.2-.7-4.9-.1-3.5 0-7 0-10.5zm6.8-7.9c-.1 6.2-.1 6.2 6.3 6 .3 0 .7.1 1 0 .6-.4 1.5-.9 1.5-1.3.1-3.1.2-6.3-.1-9.4-.3-2.6-2.5-4.2-4.8-4.1-2.1.1-3.6 1.7-3.9 4.4-.1 1.4 0 2.9 0 4.4zm-329.4 93.4c0-4.3-.2-8.6 0-13 .3-5.1 3.6-8.5 8.7-9.4 5.5-1 10.5 1.4 12.5 5.9.5 1 .8 2.2.8 3.3.1 4.8.1 9.6.2 14.4 0 1.5-.6 2-2 2-3.8-.1-7.6 0-11.5 0-1.5 0-2.1.6-2 2 .1 2.3-.1 4.7.1 7 .2 3.1 1.6 4.7 3.9 5 2.4.3 3.6-.9 4.6-4.1.4-1.3.1-3.1 2.4-3 4.8.1 4.9-.5 4.3 4.5-.6 5.4-5 8.7-11 8.6-6-.1-10.4-3.3-10.8-8.8-.5-4.7-.1-9.6-.2-14.4zm15.4-8.2c0-.7 0-2.4-.2-4-.4-2.6-1.9-4.2-4-4.3-2.4-.1-4.2 1.5-4.4 4.3-.2 2.5-.1 4.9-.1 7.4-.1 3.1.1 3.1 2.9 3.1 7.1-.1 5.6.9 5.8-6.5zm30.7 27.6c-2.7 3.2-6.1 4.5-10.2 3.8-3.7-.7-6.4-2.6-7.2-6.5-.2-1.3-.5-2.6-.6-3.9v-31.4c0-2.9.1-2.9 3.1-2.9 4.1 0 3.7-.5 3.7 3.7v27.4c0 1.3-.1 2.7.2 4 .4 2.1 2 3.5 4 3.8 2.4.3 4.3-.7 5.1-3 .5-1.4.6-2.9.6-4.4v-28.4c0-3.2.1-3.2 3.3-3.2h1c1.9-.2 2.6.5 2.6 2.5-.1 7 0 14 0 20.9v17.4c0 1.4.6 3-1.9 3.2-2.6.3-3.2-.9-3.2-3.1v-.9c-.1.4-.3.7-.5 1zm593.6-19.4c0-4.3-.2-8.6 0-13 .3-5.1 3.6-8.5 8.6-9.4 5.5-1 10.5 1.3 12.5 5.9.5 1.2.8 2.5.9 3.8.1 4.6 0 9.3.1 14 0 1.5-.5 2-2 2-3.8-.1-7.6 0-11.5 0-1 0-2.1 0-2 1.5.1 2.8-.1 5.7.2 8.5.2 2.4 1.7 3.8 3.7 4 2.3.3 3.6-.9 4.6-3.6.5-1.4-.2-3.6 2.5-3.5 4.8.1 4.9-.5 4.3 4.5-.5 4.7-4.3 8.2-9 8.6-8.3.6-13.3-3.7-13.1-11.7.2-3.9.1-7.7.2-11.6-.1 0 0 0 0 0zm15.4-7.4v-3c-.2-4.1-1.6-6.1-4.3-6.1-2.8-.1-4.3 1.9-4.4 5.9-.1 2.1.1 4.3 0 6.4-.1 2 .7 2.5 2.6 2.5 7.6-.1 5.9.8 6.1-5.7zm-614.1-77.6c0-6.6 0-13.3.1-19.9 0-.8.8-2.3 1.1-2.2 1.6.1 3.9-1.3 4.7 1.1.5 1.5.7 1.5 1.7.5 2.4-2.4 5.3-2.5 8.4-2.2 3.9.5 6.9 2.6 7.3 6.9.1.8.4 1.6.4 2.4-.1 10.6-.1 21.3-.3 31.9 0 1.1-.3 2.9-.9 3-1.5.4-3.3.3-4.9.1-.3 0-.7-1.4-.7-2.1-.1-5.2 0-10.3 0-15.5 0-5.3.1-10.6 0-16-.1-3.8-1.5-5.4-4.4-5.3-3 0-5.4 2.1-5.5 5.3-.2 4.8-.1 9.6-.1 14.5v16.5c0 3.2-.1 3.2-3.4 3.2h-1.5c-1.6.2-2-.7-2-2.1v-20.1zm198.4 85.2v-18c0-3.7 2.8-5.5 5.5-3.1 1.5 1.4 1.8.6 3 .3 2.3-.7 4.8-1.4 7.2-1.3 4.6.2 7.3 3.1 7.5 7.7.2 4 .1 8 .1 12v21.9c0 2-.4 3-2.7 2.9-4-.1-4 0-4.1-4.2v-26.9c0-1.2.1-2.3 0-3.5-.2-3.1-1.3-4.4-3.5-4.6-2.5-.2-5.2 1.3-5.8 3.7-.4 1.4-.4 3-.4 4.4v27.4c0 1.1-.3 2.9-.7 3.1-1.7.4-3.6.4-5.3.2-.3 0-.6-1.7-.6-2.7-.2-6.3-.2-12.8-.2-19.3zm303.6-85.2c0-6.6 0-13.3.1-19.9 0-.8.8-2.2 1.1-2.2 1.6.2 3.9-1.3 4.6 1.1.5 1.7.9 1.3 1.7.5 2.4-2.3 5.3-2.5 8.4-2.1 3.5.4 6.8 2.3 7.2 6.9.1.8.4 1.6.4 2.5-.1 11-.1 21.9-.2 32.9 0 1 0 2.2-1.4 2.2-1.6 0-3.2-.1-4.7-.6-.4-.1-.4-1.8-.4-2.8v-27.4c0-1.2.1-2.3 0-3.5-.2-3.2-1.4-4.6-3.9-4.8-2.5-.2-5.1 1.5-5.7 3.9-.3 1.3-.3 2.6-.3 4 0 9.5 0 18.9-.1 28.4 0 1-.5 2.9-.9 2.9-1.7.3-3.6.1-5.3-.2-.3 0-.5-1.4-.5-2.2-.2-6.6-.1-13.1-.1-19.6zm-364.3-.5c0-3.8-.1-7.6 0-11.4.3-8.7 7.3-13.4 15.5-10.6 3.6 1.3 5.8 3.8 6.4 7.5.4 2.1.6 4.3.6 6.4.1 5.6.1 11.3 0 16.9 0 1.6-.3 3.3-.4 4.9-.8 8-7.8 10.7-14.7 8.8-4.4-1.2-7.2-5-7.4-10.1-.1-4.1 0-8.3 0-12.4zm16.1.1c0-3.8.1-7.6 0-11.5-.1-3.5-1.7-5.4-4.4-5.6-2.9-.2-5.3 1.8-5.4 5.2-.2 7.8-.2 15.6 0 23.4.1 3.4 2.4 5.4 5.3 5.3 2.8-.1 4.4-1.9 4.5-5.4.1-3.7 0-7.6 0-11.4zM556 285c0-3.8-.1-7.6 0-11.4.3-8.5 6.9-13.2 15-10.7 4.1 1.2 6.5 4 7 8.1.4 3.3.6 6.6.5 9.9 0 5.9.1 11.9-.5 17.8-.7 6.6-4.8 9.6-11.7 9.3-5.8-.3-9.8-4.1-10.2-10.1-.3-4.3 0-8.6-.1-12.9zm16.1.3v-10c0-2.4 0-5.3-2.4-6.7-1.7-1-4-.8-5.5.5-2 1.7-2 4.7-2 7.1-.1 6.1-.1 12.2 0 18.3 0 2.2.4 5.4 2.4 6.7 1.6 1 4.2.9 5.7-.3 2-1.6 1.8-4.3 1.8-6.6v-9zm361.3-85.2c.2-4.8.2-9.6.7-14.4.7-6.2 4.9-9.5 11.4-9.3 6.1.2 10.3 4.1 10.7 10.2.1 1.5.1 3 0 4.5 0 3.8-.1 3.8-3.8 3.7-2.9-.1-2.9-.1-3-3-.1-1.8.1-3.7-.2-5.5-.3-2.3-1.9-3.8-3.9-3.9-2.1-.1-3.5 1-4.2 2.8-.4 1.2-.6 2.6-.7 3.9-.1 6.8-.1 13.6 0 20.4 0 1.1.1 2.3.5 3.4.8 2.4 2.3 3.4 4.4 3.2 2-.2 3.6-1.5 3.9-3.9.3-2 .3-4 .1-6-.1-2.2.7-3 2.8-2.8.8.1 1.7-.2 2.5.1.6.2 1.5.9 1.5 1.4.1 3 .3 6-.3 8.9-1.1 5.8-5.8 8.6-12.4 8.1-5.5-.4-9.4-4.3-9.8-10-.2-4 0-8 0-12 0 .2-.1.2-.2.2zm155.5 85.2v-11.9c0-10.4 10.7-13.8 17.8-9.2 1.8 1.2 3.3 3.4 3.9 5.4.8 2.6.6 5.6.8 8.4.2 2.1-.9 2.5-2.7 2.5-3.7.1-3.7.1-4-3.6-.1-1.5-.2-3-.4-4.4-.4-2.6-1.9-4.1-4.1-4.3-2.3-.1-4.3 1.6-4.4 4.4-.2 5-.1 9.9-.1 14.9 0 3.3-.1 6.6.1 9.9.2 2.7 1.7 4.2 3.8 4.4 2.3.2 3.9-.8 4.5-3.6.5-2.1.5-4.3.5-6.4 0-1.6.5-2.5 2.3-2.4.8.1 1.8-.2 2.5.1.7.3 1.7 1.1 1.7 1.8.2 2.3.2 4.6 0 7-.6 6.3-4.4 9.5-11 9.5-6.3 0-10.6-3.7-11-9.7-.3-4.2-.1-8.5-.2-12.8.1 0 0 0 0 0zm-102 .1c.3-4.9.2-9.9.9-14.8.8-5.6 5.1-8.6 11.1-8.3 6 .2 9.6 3.5 10.4 9.2.2 1.6.4 3.3.4 4.9.1 4-.1 4.1-4.1 4.1-1.9 0-2.7-.6-2.7-2.5 0-1.8-.1-3.6-.3-5.4-.3-2.7-2.2-4.5-4.5-4.3-2.1.1-3.8 1.8-3.9 4.4-.2 4.5-.1 9-.1 13.4 0 3.6-.1 7.3.1 10.9.1 1.4.7 3 1.6 4 2 2.1 5.5 1.3 6.4-1.6.7-2.3.8-4.9.8-7.3 0-2.1 1-2.4 2.7-2.4 3.4 0 3.8.1 3.8 2.3.1 2.1.1 4.3-.1 6.5-.6 6.3-4.4 9.6-11 9.6-6.3 0-10.7-3.6-11.1-9.7-.3-4.3-.1-8.6-.1-12.9-.1-.1-.2-.1-.3-.1zM549 211v-1.5c0-3.6 0-3.5 3.5-3.5 1.7 0 2.9.2 2.7 2.4-.1 1.3-.1 2.7.1 4 .5 2.9 2 4 4.8 3.9 2.9-.1 3.9-1.2 4.2-4.4.6-6.4-.2-7.7-6-10.4-1-.5-2.1-.9-3.2-1.5-4.2-2.2-6.6-5.5-6.2-10.4v-2c-.6-8.6 4.7-11.5 12.7-11.1 4.8.3 7.8 3.6 8.2 8.4.1 1.3 0 2.7 0 4-.1 3.5-.1 3.4-3.6 3.5-2.1 0-2.6-.8-2.4-2.6.1-1.3.1-2.7 0-4-.3-2.8-1.4-3.9-4.1-3.9-2.6 0-4.4 1.2-4.6 3.6-.3 5.3-.9 7.4 4.9 10 2 .9 3.9 1.8 5.8 2.9 3.1 1.8 4.8 4.5 4.8 8.2 0 2.8.1 5.7-.5 8.4-1.2 5.4-5.4 7.8-11.9 7.2-5.7-.5-8.8-3.4-9.2-9.1.1-.9 0-1.7 0-2.1zm301.6-2.4v2.3c-.2 9.5-8.6 14.4-17 9.9-2-1.1-3.5-2.7-4-4.8-.5-2.1-.7-4.3-.7-6.4 0-3.3.4-3.5 3.7-3.6 2.2-.1 3 .8 2.7 2.9-.1 1-.1 2 0 3 .3 3.2 1.8 4.6 4.8 4.4 2.8-.1 4-1.4 4.3-4.4.6-6.3 0-7.6-6-10.3-10.4-4.7-9.4-7.5-9.3-15.8.1-5.2 2.9-8.4 8-9.1 2.4-.3 5 .1 7.3.7 2.9.8 4.8 3 5.1 6.1.2 2 .3 4 .3 5.9 0 2.9-.2 2.9-3.1 3-1.8 0-2.9-.3-2.7-2.4.1-1.3.1-2.7 0-4-.4-3-1.8-4.2-4.5-4.1-2.8.1-3.9 1.3-4.1 4.4-.4 6 .2 7 5.7 9.5.5.2.9.4 1.4.6 5.7 2.4 9.2 6.2 8.1 12.2zM461.2 195v23.4c0 2.9-.1 2.9-3.1 2.9h-2c-1.2 0-1.8-.5-1.8-1.8v-46.3c0-4.4 0-4.4-4.2-4.5h-2c-1.4.1-2.2-.5-2.1-2 .1-.8 0-1.7 0-2.5-.1-1.2.3-1.9 1.6-1.9H468c1.5 0 2 .7 1.9 2.1-.1.8-.1 1.7 0 2.5.1 1.5-.6 2-2.1 2-2.1 0-4.2.2-6.4.3-.1 2.3-.4 4.6-.4 6.9.1 6.3.2 12.6.2 18.9zm162.5 5v-14c0-1.8-.3-3-2.4-2.7-2.4.4-2.7-1-2.6-2.9 0-1.8 0-3.4 2.6-3.1 2 .3 2.6-.7 2.5-2.6-.1-3-.1-6 0-9 0-3.4.1-3.4 3.7-3.4h.5c1.8-.2 2.7.4 2.6 2.5-.2 3.3 0 6.6-.1 10-.1 2 .6 2.8 2.6 2.5.7-.1 1.4-.1 2 0 .9.2 2.4.5 2.4.9.3 1.4.1 2.9-.1 4.4 0 .3-.8.6-1.2.6-1 .1-2 .1-3 0-1.8-.2-2.8.4-2.7 2.4.1 8.5 0 16.9.1 25.4 0 3.5.7 4 4.2 3.8 1.5-.1 3-.7 3 1.8.1 3.4-.1 3.8-2.6 4.2-1.5.2-3 .4-4.5.4-4.5.1-6.4-1.6-6.8-6.1-.3-3.8-.1-7.6-.2-11.4V200zm273.5 85.5c0-4.5-.1-9 0-13.4.1-2.1-.5-3.2-2.7-2.9-2.3.4-2.3-1.1-2.3-2.7.1-1.6-.4-3.6 2.3-3.2 2.3.3 2.8-.9 2.7-2.9-.1-3.1 0-6.3-.1-9.5 0-1.8.4-2.9 2.5-2.6.7.1 1.3.1 2 0 1.6-.1 2.4.4 2.3 2.2-.1 3.5 0 7-.1 10.5 0 1.7.6 2.4 2.3 2.3h1.5c3.5.1 3.5.2 3.5 3.7 0 1.7-.6 2.3-2.3 2.4-5.4.3-5.3.4-5.1 5.8.2 6 .1 11.9.1 17.9v3.5c.1 4.2.5 4.6 4.6 4.4 1.4-.1 2.8-.4 2.6 1.7-.2 1.6 1.1 3.9-1.9 4.3-1.6.2-3.3.4-4.9.5-4.7.1-6.8-1.6-7-6.4-.2-5.3 0-10.5 0-15.6zm-152.6-94.3v-25.9c0-3 .1-3 2.9-3h2c1.6-.1 1.9.8 1.9 2.2v53.8c0 1-.5 2.7-1 2.8-1.7.3-3.6.1-5.3-.2-.3-.1-.4-1.8-.4-2.7-.1-9-.1-18-.1-27zm-167.3 0v-25.9c0-2.9.1-2.9 3-3h2c1.3-.1 1.8.5 1.7 1.8V217c0 .8-.1 1.7 0 2.5.1 1.6-.8 2-2.1 1.9h-1.5c-2 .2-3-.4-2.9-2.7.1-4.6-.1-9.3-.2-13.9v-13.6zm337.1 7.8v-18.4c0-1 .4-2.8.9-2.9 1.4-.3 3.4-1.1 4.2 1.1.6 1.7 1.4 1.9 2.8.8.6-.5 1.4-1 2.2-1.2 1.4-.3 2.8-.4 4.2-.6.1 1.8.3 3.5.2 5.3 0 .3-1 .7-1.5.8-5.6 1.1-6.2 1.8-6.2 7.4v26.3c0 1.2-.3 3.4-.8 3.5-1.7.4-3.6.2-5.4-.1-.4-.1-.6-1.7-.6-2.6V199zm-377.5 86.2v-19.4c0-1.4 0-2.7 2-2.6 1.5.1 3.1-.3 3 2.1-.1 1.6.3 2.2 1.8.8.9-.9 2.2-1.5 3.4-2 4.1-1.6 5.1-.9 4.6 3.4-.1 1.4-.7 1.9-2.1 2.2-5.3 1.1-5.9 1.8-5.9 7.2v26.3c0 3.5-2.5 5.1-5.8 3.7-.6-.2-.9-1.6-1-2.4-.1-5.1 0-10.3 0-15.4v-3.9zM471 199v-18.9c0-1.3-.2-2.7 1.9-2.7 1.8 0 3.3-.1 3.2 2.5-.1 1.7.6 1.1 1.7.5 2-1.2 4.1-2.1 6.2-2.8 1.1-.4 1.8.2 1.9 1.6.2 3.2-.1 3.8-3.3 4.7-3.7 1-4.7 2.2-4.7 6.5-.1 7.5 0 14.9 0 22.4 0 1.8-.1 3.6-.2 5.5-.2 3.2-.3 3.2-3.4 3.2s-3.1 0-3.2-3.4c-.1-6.4-.1-12.8-.1-19.1zm552.1 86.5c0 6.3-.1 12.6 0 18.9.1 2.3-.8 2.9-2.9 2.7-.8-.1-1.7.2-2.5-.1-.6-.2-1.2-.9-1.5-1.5-.2-.6-.1-1.3-.1-2v-36.9c0-1.1.2-3 .7-3.1 1.7-.4 3.6-.3 5.4-.1.4.1.7 1.7.7 2.6.2 6.5.2 13 .2 19.5zm-431.2 0v19.4c0 1.8-.6 2.4-2.3 2.2-.7-.1-1.3-.1-2 0-1.9.1-2.6-.5-2.6-2.5.1-6.6 0-13.3 0-19.9v-18.4c0-2.9.1-2.9 3.1-3 .5 0 1 .1 1.5 0 1.8-.3 2.3.7 2.3 2.3v19.9zm117.9 0c0 6.3-.1 12.6 0 18.9 0 2.1-.6 2.9-2.8 2.8-3.9-.1-4 0-4-3.7v-37.3c0-1-.6-2.6 1.1-2.8 1.7-.2 3.6.1 5.3.5.3.1.4 1.8.4 2.8.1 6.2 0 12.5 0 18.8zM650 199.7c0 6.3-.1 12.6 0 18.9 0 2.1-.5 2.9-2.8 2.8-3.6-.1-3.8 0-3.8-3.8-.2-12.7-.1-25.5-.2-38.2 0-1.6.7-2 2.1-2 .8 0 1.7.1 2.5 0 1.8-.2 2.2.8 2.2 2.4-.1 6.6 0 13.2 0 19.9zm356.9-.5v-18.4c0-3.4.1-3.4 3.7-3.4 3 0 3.1 0 3.1 2.9v19.9c0 6.1-.2 12.2-.2 18.4 0 2.2-.7 2.9-2.8 2.8-4-.2-3.8.3-3.7-3.8-.1-6.2-.1-12.3-.1-18.4zm16.2 53.6c0 4.3-1.3 5.6-5.5 4.2-2.9-1-.8-4-1.3-6-.3-1.1-.5-2.8 1.6-2.8h2c3.1 0 3.1 0 3.2 3.2v1.4zm-320-.3c0-4.3 1.4-5.5 5.6-4.3.5.1 1.1.8 1.1 1.3.1 2 0 4 .1 6 0 1.3-.6 1.6-1.8 1.7-5 .3-5 .3-5-4.7zm-111.2.5v2.5c.1 1.3-.7 1.5-1.8 1.6-4.8.4-5 .3-5-4.4 0-.8.1-1.6 0-2.5-.1-1.4.4-2 1.9-2.1 4.8-.5 4.9-.4 4.9 4.9zm415-86.7c0-.7.1-1.3 0-2-.1-1.5.4-2.2 2-2 .7.1 1.3.1 2 0 2.1-.2 3.2.5 2.8 2.7-.1.8 0 1.7 0 2.5 0 3.5.7 3.8-3.7 3.8-2.9 0-2.9 0-3-3-.1-.6-.1-1.3-.1-2zm-356.9.4v2.5c.1 1.4-.3 2.2-1.9 2.1-.7-.1-1.3-.1-2 0-2 .2-3.2-.4-2.9-2.7.1-.6 0-1.3 0-2 0-4.1 1.8-5.5 5.7-4.2.4.1.9.8 1 1.4.2.9 0 1.9.1 2.9-.1 0-.1 0 0 0z"/><path fill="#7e1418" d="M297.5 256.1c-1-.2-2.1-.5-3.1-.7 1.2-.2 2.4-.8 3.1.7z"/><path fill="#093a68" d="M611.8 141.2v-1.9c1.4.7 1.6 1.3 0 1.9z"/><path fill="#031324" d="M797.4 97.4c-.1.2-.1.5-.2.7-.2-.2-.4-.5-.6-.7h.8z"/><path fill="#414141" d="M762.6 302c.2-.2.4-.5.7-.7v.8h-.3c-.1 0-.4-.1-.4-.1z"/><path fill="#707070" d="M524.2 304.1c.2-.3.4-.5.6-.8v.9h-.3l-.3-.1z"/><path fill="#bebebe" d="M464.6 285.1c.3.4.4.4 0 .7v-.7z"/><path fill="#606060" d="m692.8 179.7-.6.6c-.1-.3-.1-.7-.2-1 .3.1.5.3.8.4z"/></svg>